<svg width="132" height="132" viewBox="0 0 132 132" fill="none" xmlns="http://www.w3.org/2000/svg">
<g clip-path="url(#clip0)">
<path d="M61.8581 41.7332C58.8207 41.7332 56.3584 39.2709 56.3584 36.2336C56.3584 33.1962 58.8207 30.7329 61.8581 30.7329C64.8954 30.7329 67.3587 33.1962 67.3587 36.2336C67.3587 37.6918 66.7787 39.0907 65.7474 40.1229C64.7162 41.1542 63.3173 41.7332 61.8581 41.7332ZM61.8581 32.9334C60.0352 32.9334 58.5579 34.4108 58.5579 36.2336C58.5579 38.0564 60.0352 39.5338 61.8581 39.5338C63.6809 39.5338 65.1583 38.0564 65.1583 36.2336C65.1583 34.4108 63.6809 32.9334 61.8581 32.9334Z" fill="#2B8EC0"/>
<path d="M70.6579 41.7332C67.6205 41.7332 65.1582 39.2709 65.1582 36.2336C65.1582 33.1962 67.6205 30.7329 70.6579 30.7329C73.6962 30.7329 76.1585 33.1962 76.1585 36.2336C76.1585 39.2709 73.6962 41.7332 70.6579 41.7332ZM70.6579 32.9334C68.8361 32.9334 67.3587 34.4108 67.3587 36.2336C67.3587 38.0564 68.8361 39.5338 70.6579 39.5338C72.4807 39.5338 73.9581 38.0564 73.9581 36.2336C73.9581 34.4108 72.4807 32.9334 70.6579 32.9334Z" fill="#2B8EC0"/>
<path d="M2.45941 100.032C2.17945 100.032 1.9015 99.9783 1.64067 99.8756C1.09887 99.6591 0.665839 99.2361 0.436229 98.6993C0.205612 98.1636 0.198563 97.5573 0.415081 97.0155L4.81493 86.0164C5.01634 85.5159 5.39298 85.106 5.87536 84.8653L19.0759 78.2651C19.7788 77.9146 20.6167 77.9649 21.2723 78.398C21.9279 78.832 22.3035 79.5823 22.2562 80.3678C22.2079 81.1523 21.7456 81.8522 21.0427 82.2037L8.5904 88.4293L4.50274 98.65C4.1684 99.4858 3.35872 100.033 2.45941 100.032Z" fill="#2B8EC0"/>
<path d="M6.85883 113.231C6.57886 113.231 6.30092 113.179 6.04009 113.075C5.49829 112.859 5.06525 112.436 4.83564 111.899C4.60503 111.363 4.59798 110.757 4.81449 110.215L9.21535 99.216C9.41575 98.7154 9.79239 98.3056 10.2748 98.0649L23.4753 91.4656C24.5619 90.9218 25.8842 91.3639 26.427 92.4505C26.9708 93.5381 26.5287 94.8604 25.4421 95.4032L12.9898 101.629L8.90215 111.851C8.56781 112.685 7.75813 113.232 6.85883 113.231Z" fill="#2B8EC0"/>
<path d="M13.4585 126.432C13.1786 126.431 12.9016 126.379 12.6408 126.276C12.099 126.058 11.6649 125.635 11.4353 125.1C11.2057 124.563 11.1987 123.958 11.4152 123.416L15.815 112.416C16.0154 111.915 16.3931 111.505 16.8755 111.265L30.075 104.665C31.1626 104.123 32.4849 104.564 33.0277 105.651C33.5705 106.738 33.1294 108.06 32.0418 108.603L19.5905 114.829L15.5029 125.05C15.1685 125.885 14.3588 126.432 13.4585 126.432Z" fill="#2B8EC0"/>
<path d="M130.057 100.032C129.157 100.033 128.348 99.4858 128.013 98.6499L123.925 88.4273L111.474 82.2016C110.386 81.6578 109.945 80.3365 110.488 79.2489C111.032 78.1613 112.353 77.7202 113.441 78.263L126.64 84.8633C127.123 85.104 127.5 85.5128 127.701 86.0133L132.101 97.0135C132.317 97.5553 132.31 98.1605 132.081 98.6973C131.851 99.234 131.417 99.657 130.875 99.8735C130.615 99.9772 130.337 100.031 130.057 100.032Z" fill="#2B8EC0"/>
<path d="M125.657 113.231C124.757 113.232 123.948 112.685 123.613 111.851L119.525 101.627L107.074 95.4012C105.986 94.8584 105.545 93.5361 106.088 92.4485C106.632 91.3609 107.953 90.9198 109.04 91.4636L122.24 98.0629C122.722 98.3035 123.1 98.7134 123.3 99.2139L127.7 110.213C127.917 110.755 127.91 111.361 127.68 111.897C127.45 112.434 127.016 112.857 126.475 113.073C126.215 113.177 125.937 113.231 125.657 113.231Z" fill="#2B8EC0"/>
<path d="M119.057 126.432C118.157 126.432 117.348 125.885 117.013 125.05L112.926 114.826L100.473 108.601C99.3868 108.058 98.9447 106.736 99.4886 105.648C100.031 104.561 101.353 104.119 102.44 104.663L115.64 111.262C116.123 111.503 116.5 111.913 116.7 112.413L121.101 123.413C121.318 123.954 121.311 124.561 121.08 125.096C120.85 125.633 120.417 126.056 119.875 126.273C119.615 126.376 119.337 126.431 119.057 126.432Z" fill="#2B8EC0"/>
<path d="M39.8586 130.832C38.6431 130.832 37.6582 129.847 37.6582 128.631V122.032C37.6592 121.597 37.7881 121.173 38.0278 120.81L42.4276 114.211C42.8647 113.556 43.616 113.185 44.4005 113.236C45.185 113.287 45.8829 113.752 46.2313 114.457C46.5787 115.162 46.5254 115.999 46.0883 116.652L42.0581 122.691V128.631C42.0581 129.847 41.0731 130.832 39.8586 130.832Z" fill="#2B8EC0"/>
<path d="M92.6577 130.832C91.4422 130.832 90.4573 129.847 90.4573 128.631V122.692L86.427 116.646C85.7523 115.635 86.0252 114.269 87.0363 113.595C88.0474 112.92 89.414 113.193 90.0877 114.204L94.4875 120.804C94.7292 121.168 94.8581 121.595 94.8571 122.032V128.631C94.8571 129.847 93.8722 130.832 92.6577 130.832Z" fill="#2B8EC0"/>
<path d="M61.8576 53.8328C60.6431 53.8328 59.6582 52.8479 59.6582 51.6334V40.6333C59.6582 39.4178 60.6431 38.4329 61.8576 38.4329C63.0732 38.4329 64.0581 39.4178 64.0581 40.6333V51.6334C64.0581 52.8479 63.0732 53.8328 61.8576 53.8328Z" fill="#2B8EC0"/>
<path d="M70.6574 53.8328C69.4429 53.8328 68.458 52.8479 68.458 51.6334V40.6333C68.458 39.4178 69.4429 38.4329 70.6574 38.4329C71.873 38.4329 72.8579 39.4178 72.8579 40.6333V51.6334C72.8579 52.8479 71.873 53.8328 70.6574 53.8328Z" fill="#2B8EC0"/>
<path d="M18.0788 20.9875H18.0566L18.3819 20.4527L18.2983 20.3933L8.99911 32.6452C6.47642 36.0088 6.68589 40.6866 9.49861 43.8125L28.9993 65.2025L36.0397 60.6042L20.6639 43.2949C17.9599 40.1619 17.8038 35.5687 20.2893 32.2605L22.677 29.0832L18.0788 20.9875Z" fill="#2B8EC0"/>
<path d="M114.438 20.8334H114.459L114.327 20.4507L114.416 20.3843L123.897 32.6452C126.421 36.0078 126.213 40.6866 123.4 43.8125L104.556 63.9699L97.1348 59.3726L111.853 43.2949C114.557 40.1619 114.712 35.5687 112.227 32.2605L109.84 29.0833L114.438 20.8334Z" fill="#2B8EC0"/>
<path d="M114.657 75.832L112.061 81.3547L109.531 86.7002L97.9811 111.251C97.4051 112.503 96.2711 113.408 94.9237 113.693L68.4581 119.369L67.1822 119.633C66.5729 119.766 65.9425 119.766 65.3342 119.633L64.0583 119.369L37.5927 113.693C36.2443 113.408 35.1103 112.503 34.5343 111.251L22.9843 86.7002L20.4546 81.3547L17.8594 75.832C17.8594 62.9184 43.6864 52.4027 64.0583 51.6766C64.8055 51.6544 65.5316 51.6333 66.2577 51.6333C66.9838 51.6333 67.7099 51.6544 68.4581 51.6766C88.8299 52.4027 114.657 62.9184 114.657 75.832Z" fill="#3CADE6"/>
<path d="M90.9498 107.732C90.1986 107.729 89.5017 107.342 89.0998 106.706C88.699 106.071 88.6507 105.274 88.9699 104.595L96.25 89.1242C96.5702 88.3901 97.2641 87.8876 98.0617 87.813C98.8593 87.7385 99.6347 88.1031 100.085 88.7647C100.536 89.4274 100.591 90.2824 100.23 90.9964L92.9408 106.478C92.5752 107.245 91.8008 107.734 90.9498 107.732Z" fill="#2B8EC0"/>
<path d="M112.061 81.3548L109.532 86.7003C108.651 86.3931 108.061 85.5643 108.057 84.6328C108.057 73.9186 88.764 63.3808 68.4586 62.6768C67.7325 62.6547 66.9843 62.6325 66.2582 62.6325C65.5321 62.6325 64.7849 62.6547 64.0588 62.6768C43.7524 63.3808 24.4592 73.9186 24.4592 84.6328C24.4551 85.5643 23.865 86.3931 22.9848 86.7003L20.4551 81.3548C23.5135 68.3969 44.4574 58.9366 64.0588 58.2548C64.7849 58.2548 65.5321 58.2327 66.2582 58.2327C66.9843 58.2327 67.7325 58.2548 68.4586 58.2548C88.0601 58.9366 109.004 68.3969 112.061 81.3548Z" fill="#2B8EC0"/>
<path d="M61.8358 18.6338C61.5498 9.12921 51.8045 1.03345 39.8587 1.03345C27.7146 1.03345 17.8595 8.90967 17.8595 18.6338C17.8555 18.7507 17.8625 18.8685 17.8806 18.9853V19.0729C17.9491 21.5231 18.638 23.9149 19.8827 26.0257L61.8358 18.6338Z" fill="#3CADE6"/>
<path d="M57.4583 18.6338C57.4583 26.5312 48.5921 34.0328 37.6584 34.0328C29.8487 34.0328 23.0953 30.7769 19.8828 26.0256L57.4583 18.6338Z" fill="#3CADE6"/>
<path d="M33.2583 25.2333C32.4476 25.2323 31.7024 24.7861 31.3197 24.0701C30.9381 23.3551 30.9804 22.487 31.4305 21.8123L35.8304 15.213C36.1536 14.7266 36.6572 14.3902 37.2302 14.2754C37.8022 14.1616 38.3963 14.2795 38.8818 14.6027L43.6512 17.782L46.8305 13.0126C47.196 12.4647 47.7882 12.1093 48.4438 12.0448C49.0994 11.9793 49.75 12.212 50.2162 12.6782L53.9685 16.4336H61.8578C63.0734 16.4336 64.0583 17.4185 64.0583 18.634C64.0583 19.8485 63.0734 20.8334 61.8578 20.8334H53.0581C52.4751 20.8334 51.9151 20.6018 51.5032 20.1889L48.9997 17.6874L46.0883 22.054C45.765 22.5404 45.2615 22.8767 44.6895 22.9916C44.1175 23.1053 43.5233 22.9875 43.0379 22.6643L38.2674 19.485L35.0892 24.2544C34.6813 24.8657 33.9945 25.2333 33.2583 25.2333Z" fill="#2B8EC0"/>
<path d="M112.633 26.0257C113.878 23.9149 114.566 21.5231 114.635 19.0729V18.9853C114.653 18.8685 114.661 18.7507 114.657 18.6338C114.657 8.90967 104.801 1.03345 92.6578 1.03345C80.712 1.03345 70.9657 9.12921 70.6797 18.6338L112.633 26.0257Z" fill="#3CADE6"/>
<path d="M112.633 26.0256C109.422 30.7769 102.667 34.0328 94.8574 34.0328C83.9238 34.0328 75.0576 26.5312 75.0576 18.6338L112.633 26.0256Z" fill="#3CADE6"/>
<path d="M99.2569 25.2333C98.5208 25.2343 97.833 24.8667 97.4251 24.2544L94.2478 19.485L89.4784 22.6643C88.993 22.9875 88.3988 23.1053 87.8268 22.9916C87.2538 22.8767 86.7513 22.5404 86.427 22.054L83.5166 17.6874L81.013 20.1889C80.6001 20.6018 80.0412 20.8334 79.4571 20.8334H70.6574C69.4429 20.8334 68.458 19.8485 68.458 18.634C68.458 17.4185 69.4429 16.4336 70.6574 16.4336H78.5467L82.3021 12.6782C82.7683 12.212 83.4179 11.9793 84.0745 12.0448C84.7301 12.1093 85.3222 12.4647 85.6878 13.0126L88.8671 17.782L93.6365 14.6027C94.1219 14.2795 94.7161 14.1616 95.2881 14.2754C95.8601 14.3902 96.3637 14.7266 96.6879 15.213L101.088 21.8123C101.538 22.488 101.58 23.3561 101.198 24.0711C100.815 24.7871 100.069 25.2333 99.2569 25.2333Z" fill="#2B8EC0"/>
<path d="M68.4585 80.2319V119.369L67.1825 119.633C66.5732 119.766 65.9428 119.766 65.3345 119.633L64.0586 119.369V80.2319C64.0586 79.0174 65.0435 78.0325 66.258 78.0325C67.4735 78.0325 68.4585 79.0174 68.4585 80.2319Z" fill="#2B8EC0"/>
<path d="M68.4585 51.6766V71.4321C68.4585 72.6476 67.4735 73.6325 66.258 73.6325C65.0435 73.6325 64.0586 72.6476 64.0586 71.4321V51.6766C64.8058 51.6544 65.5319 51.6333 66.258 51.6333C66.9841 51.6333 67.7102 51.6544 68.4585 51.6766Z" fill="#2B8EC0"/>
<path d="M66.2579 36.2334C66.2579 38.6635 64.288 40.6334 61.8579 40.6334C59.4279 40.6334 57.458 38.6635 57.458 36.2334C57.458 33.8033 59.4279 31.8335 61.8579 31.8335C64.288 31.8335 66.2579 33.8033 66.2579 36.2334Z" fill="white"/>
<path d="M64.0581 36.2334C64.0581 37.448 63.0732 38.4329 61.8577 38.4329C60.6431 38.4329 59.6582 37.448 59.6582 36.2334C59.6582 35.0179 60.6431 34.033 61.8577 34.033C63.0732 34.033 64.0581 35.0179 64.0581 36.2334Z" fill="#2C2F38"/>
<path d="M75.0577 36.2334C75.0577 38.6635 73.0878 40.6334 70.6577 40.6334C68.2277 40.6334 66.2578 38.6635 66.2578 36.2334C66.2578 33.8033 68.2277 31.8335 70.6577 31.8335C73.0878 31.8335 75.0577 33.8033 75.0577 36.2334Z" fill="white"/>
<path d="M72.8579 36.2334C72.8579 37.448 71.873 38.4329 70.6575 38.4329C69.4429 38.4329 68.458 37.448 68.458 36.2334C68.458 35.0179 69.4429 34.033 70.6575 34.033C71.873 34.033 72.8579 35.0179 72.8579 36.2334Z" fill="#2C2F38"/>
<path d="M61.8578 34.0331C61.8528 35.0663 61.1297 35.9576 60.1196 36.1741C59.1095 36.3907 58.0843 35.876 57.6562 34.9354C58.0933 33.5517 59.1769 32.4681 60.5597 32.031C61.3482 32.3855 61.8558 33.169 61.8578 34.0331Z" fill="white"/>
<path d="M70.6576 34.0331C70.6536 35.0663 69.9305 35.9576 68.9194 36.1741C67.9093 36.3907 66.8841 35.876 66.4561 34.9354C66.8931 33.5517 67.9767 32.4681 69.3595 32.031C70.148 32.3855 70.6566 33.169 70.6576 34.0331Z" fill="white"/>
</g>
<defs>
<clipPath id="clip0">
<rect width="132" height="132" fill="white"/>
</clipPath>
</defs>
</svg>
