<svg width="132" height="132" viewBox="0 0 132 132" fill="none" xmlns="http://www.w3.org/2000/svg">
<g clip-path="url(#clip0)">
<path d="M18.8101 94.3794C18.8101 94.3794 16.9226 103.82 19.9769 109.036C20.1903 109.381 20.569 109.589 20.9753 109.583C21.3806 109.578 21.7532 109.359 21.9564 109.008C23.408 106.295 25.4364 103.932 27.8997 102.088" fill="#41767F"/>
<path d="M51.1073 13.6363C51.1073 13.6363 44.5555 2.71743 5.95974 0.00200018C5.4779 -0.0296457 5.02669 0.242918 4.83069 0.683919C4.63367 1.12492 4.73269 1.64249 5.07876 1.97936C14.1315 10.8382 20.4914 22.0776 23.4242 34.3991" fill="#41767F"/>
<path d="M81.9629 68.7146C87.015 70.399 90.3787 75.9289 91.8252 78.7892C92.0253 79.1833 92.4336 79.4283 92.8756 79.4201C93.3177 79.4109 93.7168 79.1496 93.9006 78.7484C96.713 73.2114 94.6529 62.805 94.6529 62.805L85.5685 58.7676L81.9629 68.7146Z" fill="#41767F"/>
<path d="M127.189 32.5076C127.098 33.2691 127.005 34.0296 126.889 34.7912C126.662 36.299 126.354 37.7924 125.968 39.2665C125.574 40.7314 125.096 42.1718 124.536 43.5806C122.54 48.9216 118.988 53.5419 114.34 56.8453C107.771 60.9032 100.256 63.1694 92.5392 63.4206C89.9361 63.6023 87.3248 63.6329 84.7186 63.5124L68.4781 63.0286H68.3852C63.4668 63.0531 58.6117 64.1392 54.1517 66.2125C45.8462 70.3184 41.2095 81.9222 45.4317 90.1348C46.3341 91.9223 47.6265 93.4832 49.2149 94.7031C49.6763 95.0716 50.1378 95.4177 50.6451 95.7637C51.8681 96.5947 53.1829 97.3787 54.4743 98.2096C54.7499 98.3811 55.0837 98.4312 55.3971 98.3475C64.8164 96.0822 74.548 95.4115 84.1878 96.364C84.691 96.3844 85.1218 96.7284 85.2535 97.2143C85.3852 97.6992 85.1882 98.2137 84.7645 98.4863C78.3976 102.408 65.1093 112.859 66.8631 130.714C66.9183 131.19 66.6733 131.65 66.2476 131.871C65.8229 132.091 65.3054 132.026 64.9481 131.706C58.2891 125.45 53.7291 117.287 51.8905 108.337C51.5679 108.29 51.3138 108.244 51.1065 108.222C43.2624 107.114 34.9344 105.984 27.8988 102.085C26.7892 101.488 25.7244 100.809 24.7148 100.055C20.1701 96.5763 16.5563 92.0264 14.1951 86.813C7.27486 71.7945 12.3729 53.2704 19.8475 39.6361C22.0382 35.6375 24.6944 31.9135 27.76 28.5396C37.3671 18.076 50.7543 11.8806 64.9481 11.3293C109.772 9.18452 124.975 28.7938 127.005 31.7236C127.157 31.9543 127.222 32.233 127.189 32.5076Z" fill="#67B9CC"/>
<path d="M85.7846 56.4054C85.8397 60.2142 84.7208 72.1273 70.0719 83.1656C69.6839 83.4862 69.1327 83.5178 68.7111 83.2432C68.2885 82.9696 68.0925 82.4541 68.2262 81.9682C69.6268 76.6946 71.4929 66.0503 66.3091 59.0678C66.0661 58.738 66.0161 58.3042 66.1774 57.9285C66.3387 57.5518 66.6878 57.2895 67.0941 57.2384L84.4952 55.305C84.8148 55.2662 85.1363 55.3642 85.3813 55.5724C85.6263 55.7817 85.7723 56.0839 85.7846 56.4054Z" fill="#41767F"/>
<path d="M97.1176 55.7612C96.745 55.7612 96.3785 55.6703 96.0488 55.4958C94.2562 54.4852 92.7014 53.1009 91.4907 51.4359C88.8468 47.8252 88.6487 42.9742 90.9875 39.1583C91.5816 38.0313 92.9771 37.5985 94.1041 38.1916C95.2321 38.7857 95.6649 40.1812 95.0708 41.3082C94.0683 43.0497 93.8366 45.1302 94.4328 47.0504C95.029 48.9696 96.3979 50.5529 98.2109 51.4196C99.145 51.9188 99.6197 52.9906 99.3604 54.0176C99.1021 55.0456 98.1762 55.7643 97.1176 55.7612Z" fill="#2C2F38"/>
<path d="M105.934 53.0324C105.561 53.0324 105.194 52.9405 104.866 52.765C103.071 51.7543 101.516 50.3691 100.305 48.7041C97.6619 45.0934 97.4628 40.2423 99.8016 36.4265C100.186 35.6976 100.931 35.229 101.754 35.1974C102.578 35.1647 103.357 35.5751 103.796 36.2733C104.236 36.9706 104.27 37.8495 103.885 38.5794C102.881 40.3199 102.65 42.4014 103.246 44.3196C103.842 46.2387 105.212 47.8221 107.025 48.6888C107.961 49.1859 108.438 50.2588 108.18 51.2878C107.921 52.3158 106.994 53.0365 105.934 53.0324Z" fill="#2C2F38"/>
<path d="M125.968 39.2665C125.574 40.7314 125.096 42.1718 124.536 43.5805C124.321 43.5519 124.111 43.4897 123.914 43.3957C122.957 42.9762 121.97 42.6291 120.961 42.3586C118.499 41.6634 115.952 41.3143 113.394 41.3204C112.12 41.3204 111.087 40.2873 111.087 39.0133C111.087 37.7393 112.12 36.7062 113.394 36.7062C117.721 36.6419 122.01 37.5157 125.968 39.2665Z" fill="#2C2F38"/>
<path d="M83.4042 41.5041C83.298 42.7761 82.1853 43.7234 80.9124 43.6264C80.6357 43.604 52.1687 41.7348 39.2489 63.2592C35.5351 69.4414 34.5429 75.0243 36.2732 79.8927C38.0903 84.2374 41.3161 87.845 45.4322 90.1348C46.3346 91.9223 47.627 93.4831 49.2154 94.703C49.6768 95.0715 50.1382 95.4176 50.6456 95.7637C50.2097 96.3445 49.5257 96.6865 48.7999 96.6865C48.5324 96.6855 48.267 96.6385 48.0159 96.5487C47.5085 96.3639 35.6505 91.9345 31.9132 81.4383C29.698 75.2091 30.8515 68.3113 35.281 60.9062C49.6992 36.891 79.9895 38.9204 81.2819 39.0133C82.5498 39.1266 83.4941 40.2342 83.4042 41.5041Z" fill="#41767F"/>
<path d="M106.473 27.4779C106.473 30.0269 104.407 32.0921 101.859 32.0921C99.3113 32.0921 97.2451 30.0269 97.2451 27.4779C97.2451 24.9299 99.3113 22.8647 101.859 22.8647C104.407 22.8647 106.473 24.9299 106.473 27.4779Z" fill="white"/>
<path d="M104.167 27.4777C104.167 28.7527 103.134 29.7848 101.86 29.7848C100.586 29.7848 99.5527 28.7527 99.5527 27.4777C99.5527 26.2037 100.586 25.1716 101.86 25.1716C103.134 25.1716 104.167 26.2037 104.167 27.4777Z" fill="#2C2F38"/>
<path d="M101.86 25.1719C101.855 26.255 101.096 27.1891 100.037 27.4167C98.9782 27.6444 97.9033 27.1033 97.4541 26.1172C97.9125 24.6666 99.0487 23.5304 100.499 23.072C101.325 23.4436 101.858 24.2654 101.86 25.1719Z" fill="white"/>
</g>
<defs>
<clipPath id="clip0">
<rect width="132" height="132" fill="white"/>
</clipPath>
</defs>
</svg>
