<svg width="132" height="132" viewBox="0 0 132 132" fill="none" xmlns="http://www.w3.org/2000/svg">
<g clip-path="url(#clip0)">
<path d="M94.5468 66C94.5468 81.795 81.7428 94.6 65.9467 94.6C50.1517 94.6 37.3477 81.795 37.3477 66C37.3477 50.2049 50.1517 37.3999 65.9467 37.3999C81.7428 37.3999 94.5468 50.2049 94.5468 66Z" fill="#D75E72"/>
<path d="M65.9465 46.1998C64.732 46.1998 63.7471 45.2149 63.7471 44.0003V2.20047C63.7471 0.984924 64.732 0 65.9465 0C67.1621 0 68.147 0.984924 68.147 2.20047V44.0003C68.147 45.2149 67.1621 46.1998 65.9465 46.1998Z" fill="#802D40"/>
<path d="M58.4218 47.52C57.4973 47.519 56.6715 46.9399 56.3563 46.0698L45.5564 16.4143C45.1687 15.2804 45.7598 14.0447 46.8857 13.6348C48.0116 13.2249 49.2584 13.7909 49.6905 14.9098L60.4904 44.5763C60.7361 45.2511 60.6364 46.0034 60.2245 46.5905C59.8126 47.1786 59.1399 47.5291 58.4218 47.5291V47.52Z" fill="#802D40"/>
<path d="M51.8065 51.348C51.1559 51.35 50.5376 51.061 50.1217 50.5605L15.1901 8.93181C14.6624 8.3326 14.5002 7.49471 14.7671 6.74242C15.034 5.99013 15.6876 5.44127 16.4751 5.30834C17.2617 5.1754 18.0593 5.47954 18.5588 6.10293L53.4904 47.7397C54.0392 48.3943 54.1601 49.3087 53.7995 50.0831C53.439 50.8586 52.6615 51.3541 51.8065 51.3551V51.348Z" fill="#802D40"/>
<path d="M46.8922 57.2002C46.5065 57.2012 46.1268 57.0995 45.7924 56.9051L11.9123 37.3426C11.2315 36.9498 10.8115 36.2237 10.8115 35.4372C10.8115 34.6507 11.2305 33.9246 11.9113 33.5308C12.592 33.137 13.4309 33.137 14.1127 33.5298L47.9919 53.0954C48.855 53.5928 49.2749 54.608 49.0171 55.5697C48.7593 56.5315 47.8882 57.2002 46.8922 57.2002Z" fill="#802D40"/>
<path d="M44.2823 64.3806C44.1544 64.3806 44.0265 64.3695 43.8996 64.3453L8.58331 58.1196C7.41409 57.8829 6.64669 56.757 6.85415 55.5817C7.0606 54.4065 8.16637 53.6109 9.34667 53.7881L44.663 60.0139C45.7879 60.2103 46.5744 61.2345 46.4757 62.3715C46.376 63.5085 45.4243 64.3816 44.2823 64.3806Z" fill="#802D40"/>
<path d="M2.18877 79.4415C1.05177 79.4364 0.106125 78.5653 0.00743089 77.4334C-0.0912628 76.3004 0.689224 75.2792 1.80809 75.0768L43.9 67.6546C44.6835 67.4955 45.4922 67.7745 46.0108 68.3817C46.5295 68.99 46.6785 69.8319 46.3986 70.5812C46.1186 71.3295 45.4539 71.8672 44.6634 71.9861L2.57146 79.4203C2.44456 79.4385 2.31667 79.4455 2.18877 79.4415Z" fill="#802D40"/>
<path d="M4.50674 103.673C3.51073 103.673 2.63961 103.004 2.3818 102.042C2.12399 101.08 2.54494 100.065 3.407 99.5678L45.794 75.0948C46.4748 74.6949 47.3177 74.6919 48.0025 75.0847C48.6873 75.4784 49.1083 76.2076 49.1063 76.9971C49.1053 77.7867 48.6803 78.5148 47.9945 78.9045L5.60445 103.378C5.27111 103.571 4.89245 103.673 4.50674 103.673Z" fill="#802D40"/>
<path d="M28.8266 112.435C27.9726 112.434 27.1962 111.939 26.8356 111.165C26.4751 110.39 26.5949 109.478 27.1438 108.823L50.1223 81.4395C50.921 80.5875 52.2453 80.508 53.1396 81.2572C54.0348 82.0065 54.1889 83.3248 53.491 84.2604L30.5135 111.65C30.0955 112.148 29.4772 112.436 28.8266 112.435Z" fill="#802D40"/>
<path d="M45.9531 123.13C45.236 123.129 44.5643 122.779 44.1524 122.191C43.7415 121.603 43.6418 120.852 43.8876 120.177L56.3572 85.9211C56.7943 84.8123 58.035 84.2524 59.1559 84.6602C60.2758 85.0671 60.8679 86.2927 60.4913 87.4237L48.0216 121.683C47.7054 122.552 46.8786 123.13 45.9531 123.13Z" fill="#802D40"/>
<path d="M65.9465 132C64.732 132 63.7471 131.015 63.7471 129.8V87.9998C63.7471 86.7852 64.732 85.8003 65.9465 85.8003C67.1621 85.8003 68.147 86.7852 68.147 87.9998V129.8C68.147 131.015 67.1621 132 65.9465 132Z" fill="#802D40"/>
<path d="M88.3183 129.664C87.3928 129.664 86.567 129.086 86.2508 128.216L71.4024 87.4237C71.0257 86.2927 71.6179 85.0671 72.7377 84.6602C73.8586 84.2524 75.0994 84.8123 75.5364 85.9211L90.3838 126.72C90.6285 127.394 90.5288 128.145 90.1179 128.732C89.707 129.319 89.0353 129.67 88.3183 129.671V129.664Z" fill="#802D40"/>
<path d="M102.158 111.353C101.507 111.354 100.89 111.066 100.471 110.567L78.4025 84.2604C77.6723 83.3259 77.8133 81.9824 78.7217 81.2201C79.6291 80.4577 80.9776 80.5524 81.7711 81.4336L103.841 107.741C104.389 108.395 104.509 109.309 104.148 110.082C103.788 110.856 103.012 111.352 102.158 111.353Z" fill="#802D40"/>
<path d="M127.386 103.673C126.999 103.674 126.619 103.572 126.286 103.378L83.8981 78.9047C82.8547 78.2934 82.5012 76.955 83.1055 75.9076C83.7107 74.8603 85.0471 74.4967 86.0985 75.0949L128.488 99.568C129.351 100.065 129.771 101.081 129.513 102.042C129.255 103.004 128.384 103.673 127.388 103.673H127.386Z" fill="#802D40"/>
<path d="M120.797 77.8795C120.668 77.8805 120.539 77.8684 120.412 77.8453L87.2298 71.9861C86.4393 71.8672 85.7746 71.3295 85.4946 70.5812C85.2147 69.8319 85.3637 68.99 85.8824 68.3817C86.401 67.7745 87.2097 67.4955 87.9932 67.6546L121.166 73.5037C122.29 73.7011 123.077 74.7243 122.979 75.8613C122.88 76.9973 121.929 77.8704 120.789 77.8714L120.797 77.8795Z" fill="#802D40"/>
<path d="M87.6109 64.3805C86.4689 64.3815 85.5172 63.5084 85.4175 62.3714C85.3188 61.2344 86.1054 60.2102 87.2303 60.0138L129.322 52.5907C130.106 52.4315 130.914 52.7105 131.433 53.3188C131.952 53.927 132.101 54.769 131.821 55.5172C131.541 56.2665 130.876 56.8043 130.086 56.9231L87.9936 64.3453C87.8667 64.3695 87.7388 64.3805 87.6109 64.3805Z" fill="#802D40"/>
<path d="M85.001 57.2001C84.005 57.2001 83.1339 56.5314 82.876 55.5697C82.6182 54.6079 83.0382 53.5928 83.9002 53.0953L120.1 32.1943C121.151 31.5971 122.488 31.9597 123.092 33.007C123.697 34.0544 123.343 35.3938 122.299 36.0051L86.1007 56.905C85.7664 57.0994 85.3867 57.2011 85.001 57.2001Z" fill="#802D40"/>
<path d="M80.0851 51.3479C79.2311 51.3469 78.4536 50.8514 78.0931 50.0769C77.7326 49.3015 77.8534 48.3881 78.4023 47.7335L110.432 9.56311C110.928 8.92965 111.73 8.61645 112.523 8.74737C113.317 8.87829 113.975 9.43118 114.241 10.1905C114.508 10.9488 114.339 11.7928 113.8 12.39L81.771 50.5603C81.355 51.0608 80.7367 51.3499 80.0851 51.3479Z" fill="#802D40"/>
<path d="M73.4707 47.5202C72.7527 47.5202 72.0799 47.1708 71.668 46.5826C71.2561 45.9945 71.1564 45.2422 71.4022 44.5675L84.5798 8.37603C85.0169 7.26623 86.2586 6.7073 87.3785 7.11416C88.4994 7.52203 89.0915 8.74765 88.7139 9.8786L75.5362 46.0791C75.218 46.9452 74.3932 47.5202 73.4707 47.5202Z" fill="#802D40"/>
<path d="M68.147 52.8001C68.147 54.0146 67.1621 54.9995 65.9465 54.9995C64.732 54.9995 63.7471 54.0146 63.7471 52.8001C63.7471 51.5845 64.732 50.5996 65.9465 50.5996C67.1621 50.5996 68.147 51.5845 68.147 52.8001Z" fill="#802D40"/>
<path d="M59.3472 57.2002C59.3472 58.4148 58.3623 59.3997 57.1467 59.3997C55.9322 59.3997 54.9473 58.4148 54.9473 57.2002C54.9473 55.9847 55.9322 54.9998 57.1467 54.9998C58.3623 54.9998 59.3472 55.9847 59.3472 57.2002Z" fill="#802D40"/>
<path d="M57.146 66C57.146 67.2146 56.1611 68.2005 54.9466 68.2005C53.731 68.2005 52.7461 67.2146 52.7461 66C52.7461 64.7855 53.731 63.7996 54.9466 63.7996C56.1611 63.7996 57.146 64.7855 57.146 66Z" fill="#802D40"/>
<path d="M61.5464 74.7998C61.5464 76.0154 60.5615 77.0003 59.347 77.0003C58.1314 77.0003 57.1465 76.0154 57.1465 74.7998C57.1465 73.5853 58.1314 72.6003 59.347 72.6003C60.5615 72.6003 61.5464 73.5853 61.5464 74.7998Z" fill="#802D40"/>
<path d="M74.7476 74.7998C74.7476 76.0154 73.7627 77.0003 72.5471 77.0003C71.3326 77.0003 70.3477 76.0154 70.3477 74.7998C70.3477 73.5853 71.3326 72.6003 72.5471 72.6003C73.7627 72.6003 74.7476 73.5853 74.7476 74.7998Z" fill="#802D40"/>
<path d="M68.147 66C68.147 67.2146 67.1621 68.2005 65.9465 68.2005C64.732 68.2005 63.7471 67.2146 63.7471 66C63.7471 64.7855 64.732 63.7996 65.9465 63.7996C67.1621 63.7996 68.147 64.7855 68.147 66Z" fill="#802D40"/>
<path d="M79.147 66C79.147 67.2146 78.1621 68.2005 76.9465 68.2005C75.732 68.2005 74.7471 67.2146 74.7471 66C74.7471 64.7855 75.732 63.7996 76.9465 63.7996C78.1621 63.7996 79.147 64.7855 79.147 66Z" fill="#802D40"/>
<path d="M76.9468 57.2002C76.9468 58.4148 75.9619 59.3997 74.7473 59.3997C73.5318 59.3997 72.5469 58.4148 72.5469 57.2002C72.5469 55.9847 73.5318 54.9998 74.7473 54.9998C75.9619 54.9998 76.9468 55.9847 76.9468 57.2002Z" fill="#802D40"/>
</g>
<defs>
<clipPath id="clip0">
<rect width="132" height="132" fill="white"/>
</clipPath>
</defs>
</svg>
