<svg width="132" height="132" viewBox="0 0 132 132" fill="none" xmlns="http://www.w3.org/2000/svg">
<g clip-path="url(#clip0)">
<path d="M99.475 85.0167C98.8254 85.0177 98.2081 84.7367 97.7821 84.2463C97.3571 83.7558 97.1658 83.1042 97.2574 82.4617L99.2404 68.5912L76.3363 60.2727C75.1752 59.8498 74.576 58.5657 74.9989 57.4046C75.4219 56.2424 76.7059 55.6442 77.8671 56.0662L102.477 65.0161C103.473 65.3776 104.077 66.3877 103.927 67.4361L101.69 83.0972C101.531 84.1989 100.588 85.0167 99.475 85.0167Z" fill="#DF4D60"/>
<path d="M86.0523 87.2543C85.9284 87.2543 85.8045 87.2443 85.6827 87.2231C85.0976 87.1254 84.5749 86.7991 84.2295 86.3158C83.8851 85.8334 83.7461 85.2331 83.8438 84.648L85.8277 72.7272L64.7616 60.0864C64.0607 59.6825 63.6327 58.9322 63.6417 58.1225C63.6518 57.3139 64.0969 56.5737 64.8069 56.1849C65.5169 55.7972 66.38 55.8234 67.0658 56.2524L89.4391 69.6758C90.2266 70.1491 90.6446 71.0565 90.4925 71.9618L88.2558 85.3862C88.0755 86.4628 87.144 87.2523 86.0523 87.2543Z" fill="#DF4D60"/>
<path d="M72.6277 89.4912C72.5038 89.4922 72.381 89.4821 72.2591 89.46C71.673 89.3623 71.1503 89.037 70.8059 88.5536C70.4605 88.0702 70.3215 87.471 70.4192 86.8849L72.4515 74.6921L55.4922 59.8518C54.8286 59.3442 54.5033 58.5094 54.6483 57.6876C54.7923 56.8648 55.3835 56.1911 56.1801 55.9403C56.9777 55.6895 57.8478 55.9041 58.4369 56.4962L76.3348 72.1573C76.9189 72.6679 77.1958 73.4434 77.0689 74.2087L74.8312 87.6321C74.6479 88.7057 73.7174 89.4912 72.6277 89.4912Z" fill="#DF4D60"/>
<path d="M52.4919 87.2543C52.2079 87.2543 51.9259 87.1999 51.6621 87.0952L41.3053 82.9521L30.9494 87.0952C30.2062 87.3923 29.3623 87.2694 28.7339 86.7749C28.1065 86.2805 27.7892 85.4879 27.904 84.6963C28.0188 83.9048 28.5466 83.2351 29.2888 82.938L40.4754 78.4635C41.0092 78.253 41.6023 78.253 42.1361 78.4635L53.3217 82.938C54.3197 83.3358 54.8938 84.3851 54.6914 85.4396C54.4879 86.494 53.5654 87.2553 52.4919 87.2543Z" fill="#DF4D60"/>
<path d="M52.4916 96.2033C52.2076 96.2033 51.9256 96.1489 51.6618 96.0441L41.4087 91.9524L33.3541 95.9797C32.6391 96.3372 31.7871 96.2858 31.1194 95.8447C30.4527 95.4036 30.071 94.6403 30.1193 93.8417C30.1677 93.044 30.638 92.332 31.354 91.9745L40.3029 87.5001C40.875 87.2171 41.5396 87.1889 42.1328 87.4245L53.3194 91.899C54.3013 92.3049 54.8623 93.3452 54.6619 94.3885C54.4605 95.4318 53.5541 96.1902 52.4916 96.2033Z" fill="#DF4D60"/>
<path d="M52.4925 105.152C52.2085 105.152 51.9265 105.099 51.6627 104.994L41.2364 100.821L35.3016 102.801C34.1274 103.191 32.8595 102.557 32.4687 101.383C32.078 100.208 32.7134 98.9404 33.8877 98.5497L40.5989 96.313C41.1014 96.1468 41.6452 96.1629 42.1367 96.3573L53.3223 100.832C54.3264 101.225 54.9065 102.279 54.703 103.337C54.4996 104.396 53.5701 105.159 52.4925 105.152Z" fill="#DF4D60"/>
<path d="M130.373 37.117C128.077 40.241 125.62 43.2421 123.012 46.1103C118.604 49.5696 113.61 52.2071 108.268 53.896C99.5783 56.4238 90.582 57.742 81.5324 57.8115C81.331 57.8115 81.1296 57.8337 80.9282 57.8337C78.4225 57.9233 75.9169 57.9455 73.4335 57.9233C68.0416 57.9011 62.6497 57.7219 57.2356 57.9686C49.8295 58.304 41.6863 60.6525 36.2944 65.9779C30.6789 71.5259 29.1129 79.648 30.12 87.2545C34.5944 120.813 72.6278 120.813 77.1023 118.577C81.5767 116.339 79.34 96.2034 88.2889 93.9657C97.2378 91.729 97.2378 100.678 97.2378 100.678C97.2378 98.4412 101.578 97.2105 103.279 97.2327C106.008 97.3434 108.569 98.5832 110.349 100.656C111.49 101.889 112.365 103.344 112.921 104.929C113.233 106.429 113.361 107.962 113.302 109.493C116.68 110.813 119.611 112.156 119.611 116.339C119.611 123.051 106.188 132 83.8144 132C71.5986 132 48.0853 130.658 29.2247 120.366C28.0162 119.718 26.8308 119.024 25.6677 118.308C16.3048 112.64 9.04178 104.081 4.97217 93.9214C4.41324 92.4893 3.89862 91.0129 3.45148 89.4912C1.78677 83.6733 0.973053 77.645 1.03449 71.5934C1.02643 68.401 1.28122 65.2136 1.79584 62.0624C1.98718 60.7965 2.24902 59.5417 2.57834 58.304C5.1041 46.7064 11.9925 36.5249 21.8196 29.8681C23.0049 29.0624 24.1903 28.3242 25.3988 27.6303C26.7855 26.8247 28.1954 26.1096 29.6053 25.4379C47.0782 17.1829 67.3255 17.8979 86.454 17.8979H128.56C129.408 17.8979 130.182 18.3773 130.561 19.1356C130.94 19.8929 130.858 20.8003 130.35 21.4781L124.533 26.8478C123.928 27.6404 123.928 28.7391 124.533 29.5327C125.809 31.2327 129.075 32.7987 130.35 34.4765C130.939 35.2559 130.948 36.3275 130.373 37.117Z" fill="#FF5364"/>
<path d="M119.611 116.339C119.611 123.051 106.188 132 83.8145 132C83.8145 132 72.6279 129.762 77.1023 118.577C81.5768 116.339 79.3401 96.2033 88.289 93.9656C97.2379 91.7289 97.2379 100.678 97.2379 100.678C97.2379 98.4411 101.578 97.2104 103.279 97.2326C106.009 97.3433 108.57 98.5831 110.349 100.656C111.49 101.889 112.365 103.344 112.921 104.929C113.233 106.429 113.361 107.962 113.302 109.493C116.681 110.813 119.611 112.155 119.611 116.339Z" fill="#DF4D60"/>
<path d="M92.7634 31.3221C92.7634 33.7935 90.7603 35.7966 88.2889 35.7966C85.8175 35.7966 83.8145 33.7935 83.8145 31.3221C83.8145 28.8507 85.8175 26.8477 88.2889 26.8477C90.7603 26.8477 92.7634 28.8507 92.7634 31.3221Z" fill="white"/>
<path d="M90.5262 31.3222C90.5262 32.5579 89.5242 33.5589 88.2885 33.5589C87.0528 33.5589 86.0518 32.5579 86.0518 31.3222C86.0518 30.0865 87.0528 29.0845 88.2885 29.0845C89.5242 29.0845 90.5262 30.0865 90.5262 31.3222Z" fill="#2C2F38"/>
<path d="M101.712 42.5089C100.477 42.5089 99.4758 41.5068 99.4758 40.2711C99.4758 39.0354 100.477 38.0344 101.712 38.0344C107.888 38.0263 112.892 33.0222 112.899 26.8477V20.1356C112.889 11.4908 105.884 4.48453 97.238 4.47446H48.018C46.7823 4.47446 45.7803 3.47241 45.7803 2.23773C45.7803 1.00204 46.7823 0 48.018 0H97.238C108.354 0.012085 117.362 9.02042 117.374 20.1356V26.8477C117.365 35.4925 110.358 42.4988 101.712 42.5089Z" fill="#FB7B76"/>
<path d="M81.5323 57.8113C81.3309 57.8113 81.1295 57.8335 80.928 57.8335C78.4224 57.9231 75.9168 57.9452 73.4333 57.9231C68.4564 54.4084 65.6204 48.5945 65.9155 42.5087C65.9155 41.273 66.9175 40.271 68.1532 40.271C69.3889 40.271 70.391 41.273 70.391 42.5087C70.391 53.9633 79.3842 55.9099 79.787 55.9764C80.6924 56.1688 81.3863 56.8979 81.5323 57.8113Z" fill="#2C2F38"/>
<path d="M92.7626 125.288C91.7152 125.301 90.7988 124.585 90.5581 123.565C90.3174 122.545 90.8169 121.494 91.7605 121.037L105.184 114.326C106.29 113.773 107.634 114.222 108.187 115.328C108.739 116.434 108.29 117.778 107.184 118.33L93.7606 125.042C93.4514 125.2 93.11 125.285 92.7626 125.288Z" fill="#FB7B76"/>
<path d="M88.2889 118.577C87.4641 118.576 86.7068 118.121 86.3181 117.393C85.9293 116.666 85.9716 115.783 86.4298 115.097L90.9043 108.385C91.3484 107.72 92.1128 107.343 92.9104 107.394C93.708 107.446 94.418 107.92 94.7715 108.636C95.126 109.353 95.0706 110.204 94.6275 110.868L90.153 117.581C89.7371 118.203 89.0372 118.577 88.2889 118.577Z" fill="#FB7B76"/>
<path d="M38.9568 47.6992C38.6486 48.6107 37.7926 49.223 36.8309 49.2199C36.5882 49.2139 36.3475 49.1766 36.1148 49.1082C24.7721 45.3276 24.0339 34.0966 25.3985 27.6302C26.7852 26.8245 28.1951 26.1095 29.6051 25.4377C30.0653 25.9997 30.2234 26.751 30.03 27.4519C29.594 29.1468 29.3754 30.8911 29.3805 32.6424C28.9424 38.1149 32.3222 43.1714 37.5469 44.8573C38.7131 45.2611 39.3405 46.526 38.9568 47.6992Z" fill="#FB7B76"/>
<path d="M27.8601 64.5237C27.9568 65.1108 27.8148 65.713 27.4664 66.1964C27.1179 66.6788 26.5912 67.0031 26.0031 67.0968C24.0655 67.419 22.1057 67.5842 20.1409 67.5882C13.6664 67.6668 7.31873 65.7876 1.92984 62.1963C1.87949 62.158 1.83417 62.1127 1.7959 62.0624C1.98724 60.7965 2.24908 59.5417 2.5784 58.304C3.26624 58.0592 4.03162 58.1771 4.61472 58.6172C9.25937 61.6102 14.6835 63.1661 20.2083 63.0916C21.9103 63.0866 23.6082 62.9446 25.287 62.6666C25.8742 62.5699 26.4764 62.7109 26.9598 63.0604C27.4422 63.4088 27.7665 63.9355 27.8601 64.5237Z" fill="#FB7B76"/>
<path d="M22.4004 89.1114C16.7849 92.8698 8.52887 93.7198 4.97186 93.9212C4.41293 92.4892 3.89832 91.0128 3.45117 89.4911C4.9054 89.4689 14.3236 89.1336 19.9391 85.3973C20.9572 84.8515 22.2241 85.1697 22.8616 86.1325C23.5001 87.0963 23.2997 88.3863 22.4004 89.1114Z" fill="#FB7B76"/>
<path d="M34.347 112.872C33.0781 115.522 31.4355 117.978 29.4697 120.165C29.3922 120.237 29.3106 120.305 29.224 120.366C28.0155 119.718 26.8302 119.024 25.667 118.308C25.7244 117.811 25.9449 117.347 26.2934 116.987C27.939 115.152 29.3106 113.087 30.365 110.857C30.9693 109.853 32.2452 109.486 33.2916 110.014C34.3369 110.543 34.7982 111.789 34.347 112.872Z" fill="#FB7B76"/>
<path d="M88.2887 29.0844C88.2836 30.1358 87.5485 31.0411 86.5212 31.2617C85.494 31.4822 84.4507 30.9586 84.0156 30.0018C84.4597 28.5949 85.5625 27.4932 86.9684 27.0491C87.77 27.4096 88.2867 28.2052 88.2887 29.0844Z" fill="white"/>
</g>
<defs>
<clipPath id="clip0">
<rect width="132" height="132" fill="white"/>
</clipPath>
</defs>
</svg>
