<svg width="132" height="132" viewBox="0 0 132 132" fill="none" xmlns="http://www.w3.org/2000/svg">
<g clip-path="url(#clip0)">
<path d="M80.8313 116.062C80.0055 116.061 79.2452 115.613 78.8444 114.891C78.4436 114.169 78.4658 113.286 78.9018 112.585C81.4486 108.488 86.956 101.456 95.2166 100.333C99.3564 99.7676 101.671 98.967 103.636 95.9953C104.716 94.3247 105.487 92.4748 105.912 90.5332C106.188 89.3067 107.406 88.5353 108.632 88.8102C109.859 89.0852 110.63 90.3036 110.354 91.5302C109.804 94.0105 108.813 96.373 107.428 98.5028C104.241 103.329 99.9495 104.283 95.8218 104.845C89.404 105.719 84.8825 111.577 82.7567 114.991C82.3428 115.655 81.6147 116.06 80.8313 116.062Z" fill="#71C285"/>
<path d="M83.1079 77.3745C81.8511 77.3745 80.832 76.3563 80.832 75.0986C80.832 74.4158 80.8874 58.523 85.6113 49.049C89.3756 41.0593 90.1389 31.983 87.7644 23.4767C87.5076 22.7043 87.6818 21.8534 88.2225 21.2441C88.7633 20.6359 89.5871 20.362 90.3846 20.5251C91.1822 20.6893 91.8307 21.2663 92.0885 22.0387C94.8608 31.6869 94.0139 42.0149 89.7079 51.0832C85.4412 59.5925 85.3838 74.9465 85.3838 75.0986C85.3838 76.3563 84.3647 77.3745 83.1079 77.3745Z" fill="#4C8056"/>
<path d="M78.8401 103.405C80.9156 98.1814 83.988 93.4132 87.8862 89.366C91.5004 86.1455 96.0994 85.2553 100.018 82.6179C105.348 79.0309 107.432 72.0019 108.466 66.0051C109.319 61.0506 108.238 49.1033 103.587 45.5103C103.587 45.5103 103.587 59.1644 96.9866 67.9285C93.6705 72.3343 88.582 72.3725 83.8712 74.5004C80.5883 76.0663 77.9177 78.6785 76.2803 81.9261L78.8401 103.405Z" fill="#71C285"/>
<path d="M39.8685 120.614C39.8685 120.614 40.0045 120.318 40.2321 119.794C41.4838 116.722 45.0345 105.639 35.3168 97.8562C23.9385 88.7538 23.9385 68.272 23.9385 68.272C26.6796 73.6052 30.5647 78.2677 35.3168 81.9262C40.5734 85.4306 45.8533 87.5927 49.0163 92.5764L64.901 118.622L39.8685 120.614Z" fill="#4C8056"/>
<path d="M80.8315 116.062C80.8487 115.888 80.8567 115.714 80.8547 115.539C80.8769 115.129 80.9232 114.469 80.9453 113.604C81.2706 102.789 79.7389 91.9975 76.4168 81.6987C74.9133 77.2809 72.8076 73.0917 70.1591 69.2509L61.67 56.3701C52.5443 40.2809 47.1739 22.2341 48.9714 11.3784C48.9714 11.3784 39.869 52.342 51.2473 75.0986L65.4705 126.019L80.8315 116.062Z" fill="#4C8056"/>
<path d="M30.7655 4.55173C30.7655 7.06526 28.7283 9.10246 26.2148 9.10246C23.7003 9.10246 21.6631 7.06526 21.6631 4.55173C21.6631 2.03821 23.7003 0 26.2148 0C28.7283 0 30.7655 2.03821 30.7655 4.55173Z" fill="#67B9CC"/>
<path d="M46.6959 91.0285C45.6355 91.0285 44.7161 90.2943 44.4794 89.2611C43.2962 84.0015 41.7192 78.8385 39.7625 73.8155C38.4474 70.2013 36.5894 66.8086 34.2521 63.7543C27.637 55.4434 21.2444 45.1043 23.9845 31.4048C24.1195 30.5841 24.6915 29.9023 25.4759 29.6274C26.2604 29.3515 27.1335 29.5257 27.7518 30.0826C28.3701 30.6384 28.636 31.4874 28.4446 32.297C26.0731 44.1607 31.8584 53.4203 37.8119 60.9115C40.4342 64.3172 42.5188 68.1036 43.995 72.1408C46.6083 79.0771 48.8237 86.1565 50.6313 93.3456C50.9113 94.5702 49.2477 93.4916 48.0231 93.7716C47.8519 93.8169 46.862 91.0285 46.6959 91.0285Z" fill="#4C8056"/>
<path d="M35.3174 15.9302C35.3174 17.1869 34.2983 18.206 33.0415 18.206C31.7847 18.206 30.7656 17.1869 30.7656 15.9302C30.7656 14.6734 31.7847 13.6543 33.0415 13.6543C34.2983 13.6543 35.3174 14.6734 35.3174 15.9302Z" fill="#67B9CC"/>
<path d="M110.417 27.3085C110.417 29.8231 108.379 31.8603 105.865 31.8603C103.352 31.8603 101.313 29.8231 101.313 27.3085C101.313 24.795 103.352 22.7578 105.865 22.7578C108.379 22.7578 110.417 24.795 110.417 27.3085Z" fill="#67B9CC"/>
<path d="M105.865 13.6543C105.865 14.911 104.846 15.9302 103.589 15.9302C102.333 15.9302 101.313 14.911 101.313 13.6543C101.313 12.3975 102.333 11.3784 103.589 11.3784C104.846 11.3784 105.865 12.3975 105.865 13.6543Z" fill="#67B9CC"/>
<path d="M55.9397 117.059C51.7777 107.094 47.8634 95.2118 48.9872 84.2544C50.1866 72.5528 58.3173 63.3446 63.3836 53.1515C69.2253 41.4177 72.0269 12.6119 67.1771 0C67.3916 0.554868 68.6403 1.34538 69.0552 1.7935C75.4517 8.78021 76.2433 18.1103 76.4991 27.1019C76.8032 37.8247 76.783 48.3571 73.6059 58.7345C70.6473 68.3767 66.595 77.8507 66.2355 88.0639C65.73 96.8341 67.746 105.565 72.043 113.226C72.6341 114.212 77.5383 120.723 78.2714 121.613L55.9397 117.059Z" fill="#71C285"/>
<path d="M75.4379 118.383C71.3665 116.757 67.0092 115.968 62.6256 116.062C57.5361 115.882 52.4839 117.002 47.9473 119.317L49.6088 129.58C53.7366 131.269 58.1675 132.09 62.6256 131.992C67.1421 132.087 71.6294 131.242 75.8025 129.512L75.4379 118.383Z" fill="#A5A5A4"/>
<path d="M51.247 125.164C51.247 128.936 48.1907 131.992 44.4204 131.992C40.6491 131.992 37.5928 128.936 37.5928 125.164C37.5928 121.394 40.6491 118.338 44.4204 118.338C48.1907 118.338 51.247 121.394 51.247 125.164Z" fill="#D1D4D1"/>
<path d="M89.9346 123.743C89.9346 128.298 86.2408 131.992 81.6851 131.992C77.1283 131.992 73.4355 128.298 73.4355 123.743C73.4355 119.187 77.1283 115.493 81.6851 115.493C86.2408 115.493 89.9346 119.187 89.9346 123.743Z" fill="#D1D4D1"/>
</g>
<defs>
<clipPath id="clip0">
<rect width="132" height="132" fill="white"/>
</clipPath>
</defs>
</svg>
