<svg width="132" height="132" viewBox="0 0 132 132" fill="none" xmlns="http://www.w3.org/2000/svg">
<path d="M101.2 129.8H30.7999C25.9401 129.8 22 125.86 22 121V50.6002L43.9999 24.2002H88L110 50.6002V121C110 125.86 106.06 129.8 101.2 129.8Z" fill="#F6BF9B"/>
<path d="M79.2001 52.8L66.0001 48.3999L52.8001 52.8L39.6001 48.3999L22 52.8V121C22 125.86 25.9401 129.8 30.7999 129.8H101.2C106.06 129.8 110 125.86 110 121V52.8L92.4001 48.3999L79.2001 52.8Z" fill="#DA1C4B"/>
<path d="M96.8001 2.19995H35.2002V24.1999H96.8001V2.19995Z" fill="#AABECE"/>
<path d="M96.8001 66H35.2002V116.6H96.8001V66Z" fill="#F4F4E6"/>
<path d="M66.0001 107.8C72.0753 107.8 77.0002 102.875 77.0002 96.8001C77.0002 90.725 72.0753 85.8 66.0001 85.8C59.9249 85.8 55 90.725 55 96.8001C55 102.875 59.9249 107.8 66.0001 107.8Z" fill="#DD3E46"/>
<path d="M65.9997 87.9998C64.7854 87.9998 63.7998 87.0141 63.7998 85.7999V74.7998C63.7998 73.5855 64.7854 72.5999 65.9997 72.5999C67.214 72.5999 68.1996 73.5855 68.1996 74.7998V85.7999C68.1996 87.0141 67.214 87.9998 65.9997 87.9998Z" fill="#8EC13F"/>
<path d="M72.6 74.7998L66 81.3998H77.0001L83.6001 74.7998H72.6Z" fill="#8DC13F"/>
<path d="M77.0005 83.6H66.0004C65.1117 83.5956 64.313 83.0565 63.9763 82.2359C63.6308 81.4176 63.8136 80.4714 64.4383 79.838L71.0383 73.238C71.4542 72.8265 72.0152 72.5955 72.6004 72.5999H83.6005C84.4891 72.6043 85.2879 73.1434 85.6246 73.964C85.97 74.7823 85.7872 75.7285 85.1626 76.3619L78.5626 82.9619C78.1467 83.3734 77.5857 83.6044 77.0005 83.6ZM71.3023 79.1999H76.0984L78.2983 77H73.5022L71.3023 79.1999Z" fill="#8EC13F"/>
<path d="M72.5993 2.19995H68.1992V24.1999H72.5993V2.19995Z" fill="#7D8D9C"/>
<path d="M63.8005 2.19995H59.4004V24.1999H63.8005V2.19995Z" fill="#7D8D9C"/>
<path d="M55.0007 2.19995H50.6006V24.1999H55.0007V2.19995Z" fill="#7D8D9C"/>
<path d="M46.1999 2.19995H41.7998V24.1999H46.1999V2.19995Z" fill="#7D8D9C"/>
<path d="M90.1999 2.19995H85.7998V24.1999H90.1999V2.19995Z" fill="#7D8D9C"/>
<path d="M81.4001 2.19995H77V24.1999H81.4001V2.19995Z" fill="#7D8D9C"/>
<path d="M46.1999 105.6H41.7998V110H46.1999V105.6Z" fill="#F6BF9B"/>
<path d="M90.1999 105.6H85.7998V110H90.1999V105.6Z" fill="#F6BF9B"/>
<path d="M52.8002 35.1999H48.4001C47.1858 35.1999 46.2002 34.2143 46.2002 33C46.2002 31.7857 47.1858 30.8 48.4001 30.8H52.8002C54.0145 30.8 55.0001 31.7857 55.0001 33C55.0001 34.2143 54.0145 35.1999 52.8002 35.1999Z" fill="#F4F4E6"/>
<path d="M83.6002 35.1999H61.6003C60.386 35.1999 59.4004 34.2143 59.4004 33C59.4004 31.7857 60.386 30.8 61.6003 30.8H83.6002C84.8145 30.8 85.8001 31.7857 85.8001 33C85.8001 34.2143 84.8145 35.1999 83.6002 35.1999Z" fill="#F4F4E6"/>
<path d="M33 66V116.6C33 117.814 33.9856 118.8 35.1999 118.8H96.7998C98.0141 118.8 98.9997 117.814 98.9997 116.6V66C98.9997 64.7857 98.0141 63.8 96.7998 63.8H35.1999C33.9856 63.8 33 64.7857 33 66ZM37.4001 68.1999H94.6002V114.4H37.4001V68.1999Z" fill="#263C43"/>
<path d="M83.5996 72.5999H72.5995C72.0143 72.5955 71.4533 72.8265 71.0374 73.238L68.1994 76.0979V74.7998C68.1994 73.5855 67.2138 72.5999 65.9995 72.5999C64.7852 72.5999 63.7996 73.5855 63.7996 74.7998V83.7977C56.6123 85.012 51.7701 91.8255 52.9844 99.0131C54.1987 106.2 61.0121 111.043 68.1997 109.828C75.387 108.614 80.2292 101.801 79.0149 94.613C78.0778 89.0734 73.7393 84.7349 68.1997 83.7977V83.5997H76.9996C77.5848 83.6041 78.1458 83.3731 78.5617 82.9617L85.1617 76.3617C85.7864 75.728 85.9692 74.782 85.6237 73.9637C85.287 73.1434 84.4883 72.6043 83.5996 72.5999ZM74.7994 96.8C74.7994 101.66 70.8593 105.6 65.9995 105.6C61.1398 105.6 57.1996 101.66 57.1996 96.8C57.1996 91.9402 61.1398 87.9998 65.9995 87.9998C70.8593 87.9998 74.7994 91.9402 74.7994 96.8ZM76.0975 79.1999H71.3014L73.5013 77H78.2974L76.0975 79.1999Z" fill="#263C43"/>
<path d="M46.1999 105.6H41.7998V110H46.1999V105.6Z" fill="#263C43"/>
<path d="M90.1999 105.6H85.7998V110H90.1999V105.6Z" fill="#263C43"/>
<path d="M30.8001 132H101.2C107.275 132 112.2 127.074 112.2 121V50.6001C112.2 50.0852 112.022 49.5882 111.694 49.1922L92.7081 26.4H96.8001C98.0144 26.4 99.0001 25.4144 99.0001 24.2001V2.19991C99.0001 0.985617 98.0144 0 96.8001 0H35.2C33.9857 0 33.0001 0.985617 33.0001 2.19991V24.1998C33.0001 25.4141 33.9857 26.3997 35.2 26.3997H39.292L20.3059 49.1917C19.9782 49.5877 19.7998 50.085 19.7998 50.5996V121C19.8001 127.074 24.7258 132 30.8001 132ZM107.8 121C107.8 124.645 104.845 127.6 101.2 127.6H30.8001C27.1547 127.6 24.2001 124.645 24.2001 121V54.516L39.6001 50.6001L52.096 55.0002C52.5536 55.1541 53.0463 55.1541 53.5039 55.0002L66.0001 50.7099L78.496 54.9999C78.9536 55.1538 79.4463 55.1538 79.9039 54.9999L92.3998 50.5998L107.8 54.4278V121H107.8ZM46.2001 4.40009H50.6001V22.0002H46.2001V4.40009ZM55 4.40009H59.4001V22.0002H55V4.40009ZM63.8001 4.40009H68.2002V22.0002H63.8001V4.40009ZM72.6001 4.40009H77.0001V22.0002H72.6001V4.40009ZM81.4 4.40009H85.8001V22.0002H81.4V4.40009ZM94.6 21.9999H90.1999V4.40009H94.6V21.9999ZM37.4001 4.40009H41.8002V22.0002H37.4001V4.40009ZM86.9661 26.4L106.304 49.6101L92.9281 46.2C92.5254 46.0835 92.0987 46.0835 91.696 46.2L79.2001 50.6001L66.7041 46.4202C66.2465 46.2663 65.7539 46.2663 65.2962 46.4202L52.8001 50.6001L40.3041 46.4202C39.9014 46.3036 39.4748 46.3036 39.0721 46.4202L25.696 49.7643L45.034 26.4003H86.9661V26.4Z" fill="#263C43"/>
<path d="M48.4001 35.1999H52.8002C54.0145 35.1999 55.0001 34.2143 55.0001 33C55.0001 31.7857 54.0145 30.8 52.8002 30.8H48.4001C47.1858 30.8 46.2002 31.7857 46.2002 33C46.2002 34.2143 47.1858 35.1999 48.4001 35.1999Z" fill="#263C43"/>
<path d="M61.5993 35.1999H83.5992C84.8135 35.1999 85.7992 34.2143 85.7992 33C85.7992 31.7857 84.8135 30.8 83.5992 30.8H61.5993C60.385 30.8 59.3994 31.7857 59.3994 33C59.3994 34.2143 60.385 35.1999 61.5993 35.1999Z" fill="#263C43"/>
</svg>
