<svg width="132" height="132" viewBox="0 0 132 132" fill="none" xmlns="http://www.w3.org/2000/svg">
<path d="M98.0056 31.3733C96.7708 31.3733 95.7695 30.3731 95.7695 29.1371V27.3214C95.7695 24.8669 97.1114 22.6068 99.2667 21.4319L102.478 19.6806V14.3011C102.478 13.0662 103.479 12.0649 104.714 12.0649C105.949 12.0649 106.95 13.0662 106.95 14.3011V21.0094C106.95 21.8272 106.504 22.5806 105.785 22.9725L101.407 25.3582C100.688 25.7502 100.242 26.5036 100.242 27.3214V29.1371C100.242 30.3731 99.2405 31.3733 98.0056 31.3733Z" fill="#BA8630"/>
<path d="M104.713 23.2464C103.767 23.2464 102.923 22.6513 102.607 21.7604C102.289 20.8694 102.566 19.8747 103.3 19.2775C108.281 15.218 110.875 8.91799 110.198 2.52847C110.091 1.7205 110.433 0.917984 111.09 0.434293C111.746 -0.0483055 112.614 -0.135654 113.355 0.207188C114.095 0.55003 114.59 1.26847 114.645 2.0819C114.731 2.8986 114.774 3.71968 114.775 4.54075C114.787 11.6039 111.609 18.2937 106.126 22.7452C105.727 23.0706 105.227 23.2475 104.713 23.2464Z" fill="#BA8630"/>
<path d="M110.081 23.9689C108.76 23.97 107.442 23.839 106.146 23.5802L104.267 23.2046C103.072 22.948 102.305 21.7786 102.544 20.5798C102.784 19.3809 103.941 18.597 105.143 18.8197L107.022 19.1953C112.103 20.2184 117.358 18.6221 121.011 14.9469C121.885 14.0723 123.301 14.0712 124.175 14.9447C125.05 15.8171 125.05 17.2343 124.178 18.1089C120.445 21.8583 115.372 23.9678 110.081 23.9689Z" fill="#BA8630"/>
<path d="M111.421 14.3006C110.435 14.3017 109.565 13.6575 109.279 12.7141C108.993 11.7707 109.358 10.751 110.178 10.2039L116.886 5.73171C117.916 5.04602 119.307 5.32444 119.992 6.35297C120.678 7.38259 120.4 8.77361 119.371 9.45929L112.663 13.9315C112.294 14.1739 111.862 14.3027 111.421 14.3006Z" fill="#BA8630"/>
<path d="M89.0626 31.3733C87.8277 31.3733 86.8265 30.3731 86.8265 29.1371V27.3214C86.8265 26.5036 86.3788 25.7502 85.6593 25.3582L81.2832 22.9725C80.5647 22.5806 80.1182 21.8272 80.1182 21.0094V14.3011C80.1182 13.0662 81.1194 12.0649 82.3543 12.0649C83.5892 12.0649 84.5904 13.0662 84.5904 14.3011V19.6806L87.8015 21.4319C89.9568 22.6068 91.2987 24.8669 91.2987 27.3214V29.1371C91.2987 30.3731 90.2975 31.3733 89.0626 31.3733Z" fill="#BA8630"/>
<path d="M82.3545 23.2462C81.8403 23.2473 81.3402 23.0704 80.9417 22.7451C75.4595 18.2936 72.28 11.6038 72.292 4.5406C72.2931 3.71953 72.3357 2.89846 72.422 2.08175C72.4951 1.27924 72.9952 0.579362 73.7289 0.247438C74.4637 -0.083393 75.3197 0.00613888 75.9694 0.482186C76.619 0.958234 76.963 1.74655 76.8691 2.54688C76.1954 8.93313 78.7896 15.2287 83.7674 19.2861C84.4935 19.8855 84.7665 20.8747 84.4498 21.7613C84.1332 22.6479 83.2957 23.2419 82.3545 23.2462Z" fill="#BA8630"/>
<path d="M76.9869 23.9682C71.7001 23.9671 66.6318 21.8631 62.8987 18.1192C62.0263 17.2446 62.0274 15.8284 62.9009 14.955C63.7755 14.0815 65.1927 14.0826 66.0651 14.9572C69.7206 18.6301 74.9746 20.2264 80.055 19.2055L81.933 18.83C83.1351 18.6072 84.2936 19.3923 84.5327 20.5911C84.7718 21.7889 84.0053 22.9582 82.8097 23.2148L80.9318 23.5904C79.6325 23.847 78.3113 23.9737 76.9869 23.9682Z" fill="#BA8630"/>
<path d="M75.6443 14.3009C75.2032 14.3009 74.7719 14.1699 74.405 13.9254L67.6966 9.45313C66.6692 8.76745 66.3919 7.37861 67.0776 6.35118C67.7632 5.32375 69.1521 5.04642 70.1795 5.7321L76.8879 10.2043C77.7079 10.7513 78.0726 11.7711 77.7865 12.7145C77.5005 13.6578 76.6302 14.302 75.6443 14.3009Z" fill="#BA8630"/>
<path d="M28.6872 70.5679L7.05762 62.6804L9.083 69.2435C10.593 74.1514 15.4824 77.202 20.554 76.3995L27.5309 77.5558L28.6872 70.5679Z" fill="#EBEBEB"/>
<path d="M37.6297 91.7493V103.489L39.8658 103.013C39.8658 104.436 39.595 105.845 39.0655 107.165L35.3936 116.347V131.999H44.338V116.347L51.3215 107.626C52.5913 106.039 53.2825 104.068 53.2825 102.036V91.7493H37.6297Z" fill="#C99B50"/>
<path d="M100.242 131.999H91.2979V90.3658L100.242 80.5686V131.999Z" fill="#C99B50"/>
<path d="M101.308 71.9382L100.243 67.1526V29.1387H89.5898C87.8964 29.1398 86.347 30.0962 85.5893 31.6128C83.5475 35.6952 79.7359 38.6072 75.2593 39.5036L73.2197 39.9109C69.0139 44.1615 71.9542 49.2637 76.0934 49.2637H84.5902C84.5913 54.9184 82.0211 60.2663 77.6068 63.7984L73.4097 67.1526H32.7393C25.5614 67.1526 19.7429 72.9722 19.7429 80.1489V80.3302C19.7473 84.7773 21.5161 89.0399 24.6628 92.1822L26.4513 93.9707V102.915L17.5068 114.096V131.985H26.4513V116.347L36.6503 107.85C38.6899 106.15 39.8691 103.631 39.868 100.977V93.986H44.3402L49.1684 96.8936C53.2694 99.3546 58.1128 100.275 62.8307 99.4878L68.9374 98.4582L73.4097 109.639V132H82.3541V96.2221L86.0391 95.3726C91.2156 94.3714 95.7643 91.3109 98.6424 86.8933C101.521 82.4757 102.482 77.0786 101.308 71.9382Z" fill="#DAA857"/>
<path d="M91.2977 40.3187C90.0628 40.3187 89.0615 39.3186 89.0615 38.0826V35.8465C89.0615 34.6116 90.0628 33.6104 91.2977 33.6104C92.5326 33.6104 93.5339 34.6116 93.5339 35.8465V38.0826C93.5339 39.3186 92.5326 40.3187 91.2977 40.3187Z" fill="#BA8630"/>
<path d="M98.5929 69.5902C96.7008 72.4716 94.9865 75.4654 93.4601 78.5564C90.8102 83.7427 87.0105 88.2553 82.3516 91.7492V96.2214L86.0366 95.372C96.1821 93.423 103.024 83.8705 101.604 73.6377C101.529 73.0743 101.431 72.5196 101.305 71.9442L100.241 67.1521L98.5929 69.5902Z" fill="#EBEBEB"/>
<path d="M59.9902 73.8611H64.4624V78.3333H59.9902V73.8611Z" fill="#C99B50"/>
<path d="M64.4648 82.8044H68.9371V87.2766H64.4648V82.8044Z" fill="#C99B50"/>
<path d="M55.5225 82.8044H59.9947V87.2766H55.5225V82.8044Z" fill="#C99B50"/>
<path d="M68.9375 73.8611H73.4096V78.3333H68.9375V73.8611Z" fill="#C99B50"/>
</svg>
