<svg width="48" height="48" viewBox="0 0 48 48" fill="none" xmlns="http://www.w3.org/2000/svg">
<g clip-path="url(#clip0)">
<path d="M23.2933 0.300877L9.65431 14.5041C8.54222 15.6616 8.54251 17.5443 9.65402 18.7019C10.2048 19.2759 10.9402 19.5916 11.7244 19.5916C12.5086 19.5916 13.2437 19.2759 13.7946 18.7019H13.7943L23.9997 8.07446L34.2047 18.7026C34.756 19.2757 35.4918 19.5913 36.2763 19.5913C37.0602 19.5913 37.7952 19.2756 38.346 18.7016C38.9016 18.1229 39.1797 17.3625 39.1794 16.6028C39.1794 15.8432 38.9014 15.0828 38.3455 14.5051L24.7064 0.300877C24.5217 0.108591 24.2666 -0.000320435 23.9998 -0.000320435C23.7332 -0.000320435 23.478 0.108591 23.2933 0.300877ZM36.9335 15.8622C37.3203 16.2632 37.3185 16.9422 36.9332 17.3451C36.7552 17.5298 36.5218 17.6321 36.2759 17.6321C36.0298 17.6321 35.7959 17.5298 35.6175 17.3451L24.707 5.9823C24.522 5.79001 24.2669 5.6811 24.0003 5.6811C23.7337 5.6811 23.4784 5.79001 23.2937 5.9823L12.3817 17.3451H12.3814C12.2037 17.5298 11.9705 17.6321 11.7247 17.6321C11.4786 17.6321 11.2451 17.5298 11.0673 17.3451C10.874 17.1444 10.7773 16.8735 10.7773 16.6028C10.7773 16.3329 10.8737 16.0623 11.067 15.8615L24.0001 2.39275L36.9335 15.8622Z" fill="white"/>
<path d="M23.2931 14.9955L9.6537 29.1986C8.54261 30.3562 8.54233 32.2389 9.65399 33.3965C10.2047 33.9704 10.9401 34.2861 11.7243 34.2861C12.5085 34.2861 13.2437 33.9704 13.7945 33.3965H13.7943L23.9997 22.769L34.2046 33.3972C34.7559 33.9703 35.4918 34.2858 36.2763 34.2858C37.0602 34.2858 37.7952 33.9702 38.3459 33.3962C38.9014 32.8175 39.1791 32.0578 39.1791 31.2974C39.1791 30.5367 38.9014 29.7774 38.3453 29.1986L24.7062 14.9955C24.5216 14.8032 24.2664 14.6943 23.9997 14.6943C23.733 14.6943 23.4778 14.8032 23.2931 14.9955ZM36.9328 30.5551C37.3192 30.9567 37.3189 31.6378 36.9331 32.0397C36.755 32.2244 36.5217 32.3267 36.2757 32.3267C36.0296 32.3267 35.7957 32.2244 35.6173 32.0397L24.7068 20.6769C24.5218 20.4846 24.2667 20.3757 24.0001 20.3757C23.7335 20.3757 23.4782 20.4846 23.2935 20.6769L12.3815 32.0397H12.3813C12.2035 32.2244 11.9703 32.3267 11.7245 32.3267C11.4784 32.3267 11.2449 32.2244 11.0671 32.0397C10.8738 31.839 10.7771 31.568 10.7771 31.2974C10.7771 31.0265 10.8736 30.756 11.0666 30.5548L23.9994 17.0873L36.9328 30.5551Z" fill="white"/>
<path d="M23.2933 28.7093L9.65363 42.9125C8.54327 44.0701 8.54427 45.9546 9.65407 47.1103C10.2049 47.6843 10.9404 48 11.7246 48C12.5088 48 13.2439 47.6843 13.7948 47.1105H13.7945L23.9999 36.483L34.2049 47.1112C34.7562 47.6843 35.492 48 36.2765 48C37.0604 48 37.7954 47.6843 38.3461 47.1103C38.9013 46.5326 39.179 45.7722 39.1788 45.0126C39.1788 44.2519 38.9012 43.4915 38.3457 42.9125L24.7066 28.7093C24.5219 28.517 24.2668 28.4081 24 28.4081C23.7333 28.4081 23.478 28.517 23.2933 28.7093ZM36.9326 44.2693C37.3253 44.6785 37.3253 45.3443 36.933 45.7539C36.7549 45.9385 36.5216 46.0409 36.2756 46.0409C36.0295 46.0409 35.7956 45.9385 35.6173 45.7539L24.7067 34.391C24.5218 34.1987 24.2666 34.0898 24 34.0898C23.7333 34.0898 23.4781 34.1987 23.2935 34.391L12.3816 45.7537H12.3813C12.2035 45.9384 11.9704 46.0407 11.7246 46.0407C11.4785 46.0407 11.245 45.9384 11.0672 45.7537C10.8708 45.549 10.7729 45.2803 10.7729 45.0114C10.7729 44.7425 10.8711 44.4739 11.0672 44.2691L23.9999 30.8013L36.9326 44.2693Z" fill="white"/>
</g>
<defs>
<clipPath id="clip0">
<rect width="48" height="48" fill="white" transform="translate(0 48) rotate(-90)"/>
</clipPath>
</defs>
</svg>
