<svg width="168" height="239" viewBox="0 0 168 239" fill="none" xmlns="http://www.w3.org/2000/svg">
<g filter="url(#filter0_d)">
<path d="M118.426 104.574C107.174 93.3214 91.913 87 76 87V101C80.4183 101 84 104.582 84 109C84 113.418 80.4183 117 76 117L76 207C91.913 207 107.174 200.679 118.426 189.426C129.679 178.174 136 162.913 136 147C136 131.087 129.679 115.826 118.426 104.574Z" fill="white" transform="translate(-0.5)"/>
<path d="M89.5156 71.2656C90.7016 71.2656 91.6719 72.2359 91.6719 73.4218V85.2812C91.6719 86.7151 90.7447 87.9226 89.4509 88.3431C89.1383 88.4617 88.7933 88.5156 88.4375 88.5156H87.3594H86.2812C85.9255 88.5156 85.5805 88.4617 85.2678 88.3431C83.9741 87.9226 83.0469 86.7151 83.0469 85.2812V73.4218C83.0469 72.2359 84.0172 71.2656 85.2031 71.2656L85.4619 71.2117C85.5589 71.395 85.6883 71.5675 85.8392 71.7076C86.2273 72.1065 86.7664 72.3437 87.3594 72.3437C88.1788 72.3437 88.8903 71.8801 89.2569 71.2117L89.5156 71.2656Z" fill="#FCD770"/>
<path d="M94.9062 49.9619V51.8594C94.9062 55.2771 92.6314 58.4791 89.5156 59.4063V70.1876C89.5156 70.5541 89.4186 70.9099 89.2569 71.2118C88.8903 71.8802 88.1788 72.3438 87.3594 72.3438C86.7664 72.3438 86.2273 72.1066 85.8392 71.7077C85.6883 71.5676 85.5589 71.3951 85.4619 71.2118C85.3002 70.9099 85.2031 70.5541 85.2031 70.1876V59.4063C81.9688 58.3282 79.8125 55.2771 79.8125 51.8594V49.7032C79.8125 45.2182 83.7477 41.628 88.3512 42.221C92.157 42.7062 94.9062 46.1346 94.9062 49.9619ZM90.5938 51.8594V49.7032C90.5938 48.8083 90.2272 47.9998 89.645 47.4176C89.0628 46.8354 88.2542 46.4688 87.3594 46.4688C85.5697 46.4688 84.125 47.9135 84.125 49.7032V51.8594C84.125 53.6491 85.5697 55.0938 87.3594 55.0938C89.1491 55.0938 90.5938 53.6491 90.5938 51.8594Z" fill="#E6E9ED"/>
<path d="M89.5156 88.5156V91.2109C89.5156 99.8467 82.5186 106.844 73.8828 106.844C66.972 106.844 61.1178 102.348 59.0478 96.1272L50.7031 98.2188L62.5625 77.7344V91.2109C62.5625 97.4641 67.6297 102.531 73.8828 102.531C80.1359 102.531 85.2031 97.4641 85.2031 91.2109V88.5156L85.2678 88.3431C85.5805 88.4617 85.9255 88.5156 86.2812 88.5156H87.3594H88.4375C88.7933 88.5156 89.1383 88.4617 89.4509 88.3431L89.5156 88.5156Z" fill="#E6E9ED"/>
<path d="M87.3594 45.3906C84.981 45.3906 83.0469 47.3248 83.0469 49.7031V51.8594C83.0469 54.2377 84.981 56.1719 87.3594 56.1719C89.7377 56.1719 91.6719 54.2377 91.6719 51.8594V49.7031C91.6719 47.3248 89.7377 45.3906 87.3594 45.3906ZM89.5156 51.8594C89.5156 53.0485 88.5485 54.0156 87.3594 54.0156C86.1702 54.0156 85.2031 53.0485 85.2031 51.8594V49.7031C85.2031 48.514 86.1702 47.5469 87.3594 47.5469C88.5485 47.5469 89.5156 48.514 89.5156 49.7031V51.8594Z" fill="#263C43"/>
<path d="M88.4884 41.1501C86.0119 40.831 83.5268 41.59 81.6671 43.2266C79.8019 44.8675 78.7335 47.2275 78.7335 49.7029V51.8591C78.7335 55.4957 80.8693 58.7322 84.1241 60.1467V70.1873C84.1241 70.253 84.1392 70.3145 84.1435 70.3803C82.881 70.8212 81.9679 72.0104 81.9679 73.4216V85.281C81.9679 86.8702 82.8412 88.2459 84.1241 88.9941V91.2107C84.1241 96.8579 79.5292 101.453 73.8819 101.453C68.2347 101.453 63.6397 96.8579 63.6397 91.2107V73.7203L48.4932 99.8821L58.372 97.4121C60.8948 103.739 67.0067 107.922 73.8819 107.922C83.0967 107.922 90.5929 100.425 90.5929 91.2107V88.9941C91.8758 88.2459 92.7491 86.8702 92.7491 85.281V73.4216C92.7491 72.0104 91.8359 70.8212 90.5735 70.3803C90.5778 70.3145 90.5929 70.253 90.5929 70.1873V60.165C93.7593 58.8454 95.9835 55.4816 95.9835 51.8591V49.966C95.9835 45.4885 92.7621 41.6989 88.4884 41.1501ZM88.4366 91.2107C88.4366 99.2363 81.9075 105.765 73.8819 105.765C67.6029 105.765 62.0538 101.757 60.0744 95.7917L59.7596 94.8429L52.9102 96.555L61.4835 81.748V91.2107C61.4835 98.0471 67.0455 103.609 73.8819 103.609C80.7183 103.609 86.2804 98.0471 86.2804 91.2107V89.5935H88.4366V91.2107ZM90.5929 73.4216V85.281C90.5929 86.4702 89.6258 87.4373 88.4366 87.4373V77.7341H86.2804V87.4373C85.0912 87.4373 84.1241 86.4702 84.1241 85.281V73.4216C84.1241 72.8988 84.5047 72.4826 84.9996 72.3845C85.5904 73.0184 86.4259 73.4216 87.3585 73.4216C88.2911 73.4216 89.1266 73.0184 89.7174 72.3845C90.2123 72.4826 90.5929 72.8988 90.5929 73.4216ZM93.8272 51.8591C93.8272 54.7884 91.8413 57.5883 89.2075 58.3732L88.4366 58.6017V70.1873C88.4366 70.7813 87.9536 71.2654 87.3585 71.2654C86.7634 71.2654 86.2804 70.7813 86.2804 70.1873V58.6287L85.5429 58.3829C82.7592 57.4557 80.8897 54.8337 80.8897 51.8591V49.7029C80.8897 47.8474 81.6919 46.0772 83.0902 44.8459C84.2891 43.7915 85.7758 43.2341 87.3488 43.2341C87.6356 43.2341 87.9234 43.2525 88.2145 43.2891C91.4144 43.6999 93.8272 46.5699 93.8272 49.966V51.8591Z" fill="#263C43"/>
<path d="M33.5736 104.574C44.8258 93.3214 60.087 87 76 87V101C71.5817 101 68 104.582 68 109C68 113.418 71.5817 117 76 117L76 207C60.087 207 44.8258 200.679 33.5736 189.426C22.3214 178.174 16 162.913 16 147C16 131.087 22.3214 115.826 33.5736 104.574Z" fill="white" transform="translate(0.5)"/>
</g>
<rect x="86" y="-5" width="3" height="55" rx="1.5" fill="#263C43"/>
<mask id="mask0" mask-type="alpha" maskUnits="userSpaceOnUse" x="16" y="87" width="120" height="120">
<circle cx="76" cy="147" r="60" fill="#C4C4C4"/>
</mask>
<g mask="url(#mask0)">
<path d="M119.893 139.959L223.177 139.965C223.872 139.965 224.434 139.41 224.432 138.725L224.42 135.004C224.418 134.319 223.853 133.764 223.158 133.764L119.874 133.757C119.179 133.757 118.617 134.312 118.619 134.997L118.631 138.718C118.633 139.403 119.198 139.958 119.893 139.959Z" fill="#E7A561"/>
<path d="M224.431 138.725L224.419 135.004C224.417 134.319 223.852 133.764 223.157 133.763L220.302 133.762L220.309 136.28C220.311 136.965 219.75 137.52 219.055 137.52L118.626 137.515L118.63 138.718C118.632 139.403 119.197 139.958 119.892 139.959L223.176 139.965C223.871 139.965 224.433 139.41 224.431 138.725Z" fill="#E49542"/>
<path d="M50.8414 139.934L101.012 139.951C101.707 139.952 102.269 139.397 102.267 138.711L102.255 134.991C102.253 134.306 101.688 133.75 100.993 133.75L50.8223 133.732C50.1271 133.732 49.5653 134.287 49.5674 134.972L49.5788 138.693C49.5808 139.378 50.1462 139.933 50.8414 139.934Z" fill="#E7A561"/>
<path d="M102.266 138.712L102.254 134.991C102.252 134.306 101.687 133.75 100.992 133.75L98.1368 133.749L98.1445 136.267C98.1465 136.952 97.5849 137.507 96.8897 137.507L49.5742 137.49L49.5778 138.693C49.5798 139.378 50.1452 139.934 50.8404 139.934L101.011 139.952C101.706 139.952 102.268 139.397 102.266 138.712Z" fill="#E49542"/>
<path d="M225.634 138.721L225.623 135.001C225.619 133.665 224.514 132.578 223.159 132.577L119.875 132.571C119.217 132.571 118.598 132.824 118.134 133.283C117.67 133.742 117.416 134.352 117.418 135.001L117.42 135.671L103.46 135.666C103.662 134.089 102.689 132.569 100.994 132.564L67.1824 132.552C66.5184 132.552 65.98 133.083 65.9799 133.738C65.9797 134.393 66.5178 134.925 67.1816 134.925C67.243 134.974 101.057 134.833 101.054 134.995C101.053 135.033 101.083 138.719 101.051 138.751C101.024 138.777 50.7819 138.721 50.7818 138.69C50.7818 138.649 50.752 134.967 50.7847 134.934C50.811 134.908 61.469 134.923 61.5026 134.923C62.1666 134.923 62.705 134.392 62.705 133.737C62.7054 133.082 62.1673 132.551 61.5033 132.55L50.8236 132.547C50.1652 132.546 49.5467 132.799 49.0823 133.259C48.6184 133.718 48.3641 134.328 48.3662 134.976L48.3777 138.697C48.3803 139.578 48.8614 140.35 49.5769 140.774C50.1103 141.09 50.6149 141.136 51.2319 141.121L55.9683 175.35C56.2468 177.363 57.4557 179.066 59.1284 180.058C60.127 180.651 61.2905 180.99 62.5206 180.99L89.5781 181C92.8727 181.001 95.6781 178.575 96.1039 175.356L96.7321 170.607C96.8181 169.957 96.3536 169.362 95.6956 169.277C94.8777 169.171 94.2802 169.883 94.3008 170.656L89.9839 170.654L90.3456 165.054L95.0414 165.056L95.0386 165.076C94.9526 165.726 95.4172 166.321 96.0751 166.406C96.7334 166.491 97.3368 166.033 97.4228 165.383L100.629 141.138C101.412 141.18 102.186 140.988 102.753 140.426C103.403 139.783 103.529 138.906 103.468 138.038L117.427 138.043L117.429 138.721C117.432 139.602 117.913 140.374 118.628 140.799C118.998 141.018 119.432 141.145 119.894 141.145L223.177 141.151C223.835 141.151 224.454 140.899 224.918 140.439C225.382 139.98 225.636 139.37 225.634 138.721ZM89.4815 141.134L89.1197 146.735L82.0173 146.732L82.139 141.131L89.4815 141.134ZM72.2804 154.702L72.0738 149.101L79.561 149.104L79.4392 154.704L72.2804 154.702ZM79.3876 157.077L79.2658 162.677L72.5746 162.675L72.368 157.074L79.3876 157.077ZM69.8743 154.701L63.3412 154.699L62.9451 149.098L69.6676 149.1L69.8743 154.701ZM69.9618 157.074L70.1685 162.674L63.9051 162.672L63.5089 157.071L69.9618 157.074ZM70.2562 165.047L70.4628 170.647L64.4692 170.645L64.073 165.045L70.2562 165.047ZM72.6621 165.048L79.2142 165.05L79.0925 170.651L72.8689 170.648L72.6621 165.048ZM81.7924 157.078L88.4515 157.08L88.0897 162.681L81.6706 162.678L81.7924 157.078ZM81.844 154.705L81.9657 149.105L88.9664 149.107L88.6047 154.707L81.844 154.705ZM79.7343 141.131L79.6125 146.731L71.9862 146.729L71.7796 141.128L79.7343 141.131ZM69.3734 141.127L69.5801 146.728L62.7773 146.725L62.3812 141.124L69.3734 141.127ZM53.6584 141.122L59.9708 141.124L60.3669 146.724L54.4334 146.722L53.6584 141.122ZM54.7617 149.095L60.5346 149.097L60.9307 154.698L55.5367 154.696L54.7617 149.095ZM55.8651 157.069L61.0986 157.071L61.4948 162.671L56.6402 162.67L55.8651 157.069ZM57.7436 170.643L56.9685 165.042L61.6626 165.044L62.0588 170.644L57.7436 170.643ZM62.5214 178.618C60.4267 178.617 58.6336 177.074 58.3505 175.029L58.072 173.016L62.2267 173.017L62.6229 178.618L62.5214 178.618ZM65.033 178.619L64.6368 173.018L70.5502 173.02L70.7569 178.621L65.033 178.619ZM73.1629 178.622L72.9563 173.021L79.0409 173.023L78.9192 178.624L73.1629 178.622ZM93.9869 173.028L93.7196 175.049C93.4498 177.09 91.6697 178.628 89.579 178.627L89.4688 178.627L89.8306 173.027L93.9869 173.028ZM87.0597 178.626L81.3238 178.624L81.4457 173.024L87.4215 173.026L87.0597 178.626ZM87.5747 170.654L81.4972 170.651L81.619 165.051L87.9364 165.053L87.5747 170.654ZM95.3551 162.683L90.4987 162.682L90.8605 157.081L96.0958 157.083L95.3551 162.683ZM96.4096 154.71L91.0138 154.708L91.3755 149.108L97.1503 149.11L96.4096 154.71ZM97.4641 146.737L91.5289 146.735L91.8907 141.135L98.2049 141.137L97.4641 146.737ZM223.178 138.778C223.114 138.72 119.832 138.882 119.834 138.714C119.834 138.673 119.804 134.991 119.836 134.958C119.861 134.934 223.126 134.95 223.158 134.95C223.19 134.95 223.328 138.798 223.178 138.778Z" fill="#263C43"/>
</g>
<path d="M130 147C130 156.51 127.489 165.851 122.72 174.079C117.951 182.307 111.094 189.129 102.842 193.856C94.5902 198.583 85.2364 201.047 75.7267 200.999C66.2169 200.951 56.8885 198.392 48.685 193.582C40.4815 188.772 33.6938 181.88 29.0085 173.605C24.3232 165.329 21.9065 155.963 22.0028 146.453C22.099 136.944 24.7049 127.629 29.5568 119.45C34.4087 111.27 41.3345 104.518 49.6337 99.8744" stroke="#DA7A4F" stroke-width="2" stroke-linecap="round"/>
<path d="M96.7701 100.039C109.224 105.084 119.28 114.477 124.964 126.362" stroke="#DA7A4F" stroke-width="2" stroke-linecap="round"/>
<defs>
<filter id="filter0_d" x="0" y="24" width="168" height="215" filterUnits="userSpaceOnUse" color-interpolation-filters="sRGB">
<feFlood flood-opacity="0" result="BackgroundImageFix"/>
<feColorMatrix in="SourceAlpha" type="matrix" values="0 0 0 0 0 0 0 0 0 0 0 0 0 0 0 0 0 0 127 0"/>
<feOffset dx="8" dy="8"/>
<feGaussianBlur stdDeviation="12"/>
<feColorMatrix type="matrix" values="0 0 0 0 0 0 0 0 0 0 0 0 0 0 0 0 0 0 0.1 0"/>
<feBlend mode="normal" in2="BackgroundImageFix" result="effect1_dropShadow"/>
<feBlend mode="normal" in="SourceGraphic" in2="effect1_dropShadow" result="shape"/>
</filter>
</defs>
</svg>
