<svg viewBox="0 0 694 172" fill="none" xmlns="http://www.w3.org/2000/svg">
<path d="M128.57 95.1904C127.849 93.5049 128.81 94.2273 128.089 93.5049C126.648 91.5787 125.208 90.3748 123.527 89.4116C121.365 87.7262 123.286 88.2077 119.924 87.0038C116.562 85.7999 113.921 84.8368 110.079 83.8736L102.874 82.4289L104.075 78.8172C104.555 78.3356 104.795 77.6133 105.036 76.891C105.756 74.9647 105.996 73.2792 106.957 71.353C107.197 70.3898 107.677 69.1859 107.677 67.7412C108.878 65.815 109.598 63.6479 110.319 61.2401L111.279 59.073L114.641 46.7931C114.881 45.3484 115.362 43.9037 116.082 42.6998C116.322 41.0144 117.043 39.3289 117.763 37.1618C118.484 34.5132 119.204 32.587 120.165 29.216C120.165 28.7345 120.405 27.7713 120.645 27.5305C122.086 26.3266 120.645 25.1227 120.405 23.678C119.924 21.9925 120.645 20.7886 121.125 19.5847L122.086 17.1769C122.086 16.6953 122.086 16.2138 121.846 15.7322C122.326 14.0467 121.365 12.8428 120.405 12.3612C118.484 11.6389 117.043 11.3981 115.842 9.95342C115.362 9.71264 115.122 9.47186 114.881 9.47186C113.2 9.23108 112.24 9.71264 110.799 10.6758C110.799 10.9166 110.319 11.1573 109.838 10.9166C107.917 10.6758 106.236 12.1205 104.795 14.0467C102.874 15.4914 100.953 16.2138 99.5122 17.6585C99.0319 18.14 98.5516 18.6216 98.3115 19.1032C97.5911 19.1032 96.3903 20.0663 96.6305 21.511L95.1896 22.7149C94.9495 23.1965 94.4692 23.4372 94.229 23.1965C93.5086 22.9557 92.548 24.1596 91.8276 24.6412C91.3473 24.8819 90.867 25.3635 90.1466 25.6043C89.6663 25.6043 89.186 25.6043 89.186 26.8082L88.7057 27.7713C87.9853 28.4937 87.505 29.6976 86.7846 30.9015V31.3831L87.7452 30.6607C90.1466 27.5305 92.7882 26.3266 95.1896 23.9188L98.5516 20.5478L100.713 19.5847V20.0663C92.0678 27.5305 83.4226 35.7171 74.7774 44.6261C69.4942 50.4049 64.211 55.9429 58.6877 61.7216L57.487 61.4809C56.7666 62.2032 56.2863 62.9256 55.5659 63.8887C55.5659 63.8887 55.5659 64.1295 55.806 63.8887C56.0461 63.1663 57.0067 62.444 58.6877 61.7216C56.2863 64.611 53.6447 67.2597 51.0031 70.149C50.5228 71.5937 49.082 71.8345 48.8418 73.0384C48.1214 74.4831 46.9207 75.4463 45.9601 76.4094C44.7594 77.1317 44.2791 79.5396 42.3579 79.2988L45.7199 75.9278L45.2397 75.687C44.5192 75.9278 44.2791 76.4094 43.7988 76.6502C42.5981 77.6133 41.6375 80.5027 40.4368 80.2619C37.0748 80.2619 34.9135 80.2619 31.5515 80.5027C25.788 80.9842 20.0245 80.5027 13.7808 81.225C13.0604 81.225 11.6195 81.9474 10.6589 82.6697C8.73777 84.8368 11.3794 90.3748 12.5801 90.8563C14.0209 91.0971 15.2217 90.6156 16.4224 91.0971C19.3041 90.8563 21.7055 90.3748 24.8274 90.3748H30.3507C31.0712 90.134 32.9923 90.3748 33.9529 90.3748C33.2325 91.5787 31.0712 95.1904 30.831 96.3943C31.5515 95.672 31.7916 94.9496 32.7522 94.2273L31.5515 96.3943C30.5909 97.839 29.6303 98.5614 28.9099 99.7653L22.6661 109.637C21.7055 111.082 20.745 112.527 20.2647 113.731L17.383 118.065V117.824L21.4654 110.6C21.2253 110.6 21.2253 110.36 21.2253 110.36C19.064 113.731 17.383 116.861 14.9815 120.713L15.9421 120.473C16.1822 120.713 16.1822 120.954 16.4224 120.954C14.9815 121.195 14.7414 121.917 14.2611 123.362C14.5012 123.362 14.2611 123.603 14.2611 123.844C14.2611 124.084 14.2611 124.566 14.0209 124.807V124.325H13.0604L12.3399 126.251C11.6195 128.9 10.1786 131.308 8.73777 133.716C8.73777 134.197 8.01734 134.438 8.01734 134.92C7.29691 136.364 6.81661 138.531 6.09618 140.217L3.69474 147.44C3.93489 145.996 4.41518 144.31 4.41518 142.384C5.6159 139.494 6.81661 136.123 8.49762 133.475C8.01733 133.234 7.77719 133.234 7.77719 133.234C7.2969 134.679 6.33633 136.364 5.37575 138.05C3.4546 143.828 1.77359 149.366 0.57287 155.868C-0.147562 161.406 -0.387707 165.98 1.05316 171.278C1.2933 171.518 1.77359 171.759 2.25388 172C2.25388 171.518 2.49402 171.037 2.49402 170.315C2.73417 169.833 2.49402 168.87 2.73417 167.907L3.4546 164.295L4.41518 158.998C4.41518 157.553 3.93489 156.349 4.65532 155.386C5.6159 153.941 5.85604 152.256 6.09618 150.33C6.57647 149.607 7.29691 148.644 8.01734 148.885C8.25748 148.885 8.49762 148.644 8.49762 148.644V148.403H7.05676L8.01734 147.44C8.25748 147.199 8.97791 147.199 8.73777 146.959C8.49762 146.718 8.49762 146.236 8.49762 145.995C8.73777 145.995 8.97791 145.995 9.93849 145.514L10.8991 142.143L9.21806 142.625L10.1786 141.661C10.6589 140.458 11.1392 139.735 12.0998 138.29C12.5801 137.568 13.0604 136.123 13.5406 135.642C13.7808 134.438 14.0209 133.234 14.7414 131.789V131.308C16.4224 130.585 17.8632 130.345 18.5837 127.937L18.1034 126.492C19.064 126.974 19.5443 126.733 20.0245 125.77C20.5048 125.047 20.745 124.325 21.7055 123.603C21.9457 123.362 21.9457 122.64 21.9457 121.917L22.6661 120.473C22.6661 120.473 23.1464 120.473 23.1464 120.232C23.6267 117.824 23.6267 117.824 23.3866 116.379H24.107C24.107 116.861 24.3471 117.102 24.3471 117.102C24.8274 118.065 26.0281 117.583 26.7486 116.62C26.9887 115.657 27.7091 114.453 28.9099 113.49C29.3902 112.768 30.1106 112.527 30.1106 111.323C30.3507 109.878 30.831 108.915 32.0317 108.674C32.2719 108.674 32.512 108.193 32.7522 107.952C32.512 106.989 33.2325 106.989 33.4726 106.748C34.9135 105.544 35.874 105.303 35.874 103.136L35.1536 101.932C35.3938 101.451 35.6339 101.21 35.6339 100.728C35.874 99.0429 35.874 99.0429 37.0748 99.5245C36.8346 99.7653 36.3543 100.488 36.3543 100.969C36.3543 101.451 36.1142 101.932 36.1142 102.414L37.555 101.932C39.4762 99.5245 40.1966 97.1167 42.3579 94.2273C42.5981 93.9865 42.5981 93.7457 42.8382 93.2641C45.7199 90.3748 46.4404 89.8932 46.6805 89.1709C47.8812 89.4116 48.8418 88.9301 49.8024 88.9301C51.2433 88.9301 52.444 88.6893 53.4046 88.9301L59.4082 89.1709H74.7774L83.9029 89.4116L86.7846 89.8932C87.9853 89.8932 88.7057 89.6524 88.9459 89.4116C87.7452 89.4116 86.7846 89.1709 86.0641 88.9301L83.9029 88.6893C83.6627 88.9301 83.1824 88.4485 82.9423 88.2077L87.7452 88.6893H88.7057L89.6663 89.4116C89.4262 89.4116 89.186 89.6524 88.9459 89.8932L90.3867 90.3748C89.6663 93.9865 87.0247 102.173 86.3043 105.785C85.5839 110.119 84.8634 113.249 84.143 117.824L83.4226 122.88C83.1824 126.733 82.7021 133.475 84.143 137.327C86.5444 147.44 91.1072 152.497 101.674 151.293C105.516 151.052 108.398 148.644 110.559 145.273L109.838 144.551C108.638 146.477 102.394 147.922 98.3115 143.828C96.6305 142.384 94.9495 139.735 94.7093 137.327C93.0283 132.752 93.2685 128.178 93.5086 124.084L93.7488 119.991C93.9889 118.306 94.4692 116.62 94.9495 114.694L94.7093 108.674C94.7093 108.433 95.6699 108.193 96.1502 107.711L96.6305 105.544L98.0714 101.932C98.0714 100.247 99.2721 97.1167 99.0319 95.4312L100.713 90.134L108.878 90.8563L110.319 91.0971L110.559 89.8932L111.76 87.9669V87.0038L107.437 86.763C107.437 86.0407 106.957 85.5591 106.236 85.7999C105.276 86.0407 104.075 85.3183 102.634 85.5591L102.394 85.0776C102.874 84.596 102.634 84.1144 102.874 84.1144C104.555 84.1144 106.236 84.596 108.638 85.0776C109.598 85.0776 108.638 84.596 109.358 84.596L112.96 86.2815C112.96 87.0038 113.2 87.4854 114.881 87.9669H113.921L113.681 88.2077C115.122 88.6893 116.082 89.4116 117.523 88.9301C118.243 88.6893 119.684 89.4116 119.924 88.9301C119.684 89.8932 119.444 90.134 119.444 90.6155C118.003 90.6155 116.803 89.4116 115.602 90.3748C116.322 90.8563 117.523 91.3379 118.724 91.5787C117.763 92.301 117.043 92.0602 116.322 92.0602C116.322 92.0602 115.842 92.0602 116.082 91.8195C115.602 91.5787 114.881 90.6155 114.401 90.6155C114.161 90.6155 113.681 91.3379 113.441 92.0602C114.161 92.301 115.602 92.7826 116.082 92.7826C116.803 93.0234 119.924 93.0234 120.645 93.5049L120.885 92.7826C121.125 92.7826 121.605 93.0234 121.365 93.2641C121.605 94.2273 121.846 94.2273 122.566 94.4681L126.889 95.672C127.849 96.1535 128.81 95.672 128.57 95.1904ZM95.6699 81.225C95.4298 81.225 95.1896 81.225 94.7093 80.9843L95.4298 79.5396L96.1502 75.2055C96.1502 74.9647 95.9101 74.7239 95.9101 74.7239H95.1896L93.2685 81.7066L86.3043 81.225C83.6627 80.9842 81.9817 80.9842 80.0605 80.7435C77.8993 80.9842 75.738 80.7435 74.057 80.2619C72.1358 80.5027 70.4548 80.2619 68.5336 80.5027C66.1322 80.2619 63.7308 80.5027 61.3293 79.7803C59.6483 80.0211 57.487 79.7803 55.0856 80.0211C58.2074 76.4094 61.0892 73.0384 64.211 69.1859L66.3723 66.0557C67.3329 64.8518 68.2935 63.6479 69.4942 62.9256C69.9745 61.4809 70.6949 61.2401 71.6555 60.5177C72.8562 58.8323 75.0175 57.6283 76.2182 55.9429C77.1788 54.0166 78.3795 53.0535 80.0605 51.8496C80.781 51.368 81.9817 50.1641 82.462 49.4417C83.4226 48.2378 84.6233 47.2747 85.3437 46.5524C86.7846 44.3853 87.9853 42.6998 89.6663 41.4959C91.5875 39.5697 93.2685 38.3657 95.6699 36.4395C96.8706 34.9948 98.3115 33.3093 99.9925 31.8646C101.433 30.6607 102.874 29.216 103.595 27.5305C105.036 26.3266 109.358 22.4741 110.319 21.0294H111.519C110.799 23.678 108.878 29.9384 108.638 32.3462C107.197 34.9948 106.236 38.6065 105.276 41.4959C104.075 45.5892 102.874 49.9233 101.674 53.7758L99.7524 60.0362L98.7918 63.4071C98.3115 64.3703 98.0714 65.3334 97.5911 66.2965C96.8706 68.7043 96.1502 71.5937 95.4298 73.7608L95.9101 74.2423C95.9101 74.2423 96.6305 74.0016 96.6305 73.7608C96.8706 72.5569 97.5911 71.353 98.0714 69.4267C98.5516 67.982 98.5516 66.5373 99.0319 65.3334C100.473 62.6848 100.953 59.7954 102.634 57.1468V55.9429C102.634 53.7758 103.595 53.0535 104.075 52.0904C104.555 51.368 104.075 51.1272 104.315 50.6456C104.555 49.6825 105.516 48.7194 105.036 47.2747C105.276 46.7931 105.996 45.83 105.996 45.3484C106.476 43.1814 107.437 40.7736 108.157 38.3657C108.398 40.292 97.5911 78.0949 95.6699 81.225ZM85.1036 33.0685V32.8278C84.3831 33.0685 83.9029 33.5501 83.4226 34.0317C81.9817 35.4764 80.0605 36.9211 78.3795 38.8473C79.1 39.0881 79.5803 39.0881 79.5803 39.0881L85.1036 33.0685ZM77.1788 41.0144C77.6591 40.292 78.1394 39.5697 78.3795 38.8473C78.1394 39.5697 77.1788 39.8105 76.9387 40.7736C76.9387 40.7736 76.9387 41.0144 77.1788 41.0144ZM67.8132 50.1641C70.9351 47.7563 73.5767 44.8669 76.2182 41.9775V41.2551L67.5731 49.9233C67.5731 50.1641 67.5731 50.1641 67.8132 50.1641ZM82.2218 44.6261C82.9423 43.4222 83.4226 42.6998 84.3831 41.7367C83.9029 43.4222 82.9423 43.9037 82.2218 44.8669V44.6261ZM74.5372 51.8496H74.7774L73.8168 52.8127C72.6161 54.739 71.1752 56.1837 69.4942 57.6283C69.2541 57.8691 69.0139 58.1099 68.7738 58.1099C70.6949 55.7021 72.6161 53.2943 74.5372 51.8496ZM60.849 57.1468C60.1286 57.8691 59.6483 58.5915 59.168 59.3138V59.5546L61.0892 57.6283C61.0892 57.3876 60.849 57.3876 60.849 57.1468ZM68.0533 58.8323L66.6125 60.7585C65.6519 61.7216 64.4512 63.4071 63.2505 64.3703C64.9315 61.7217 66.3723 60.277 68.0533 58.8323ZM56.2863 71.8345C57.487 70.3898 58.9279 68.7043 60.6089 67.5004C59.6483 68.9451 59.168 70.3898 58.4476 72.0753V71.353C57.9673 71.5937 57.487 71.8345 56.2863 72.0753V71.8345ZM50.763 78.8172C51.9637 76.4094 53.1644 75.2055 54.6053 73.52C55.3257 72.7976 55.806 72.5569 56.5264 72.3161L57.0067 72.7976C56.7666 73.0384 56.5264 73.2792 56.5264 73.52C54.6053 75.2055 53.1644 76.1686 51.9637 77.8541C51.7236 78.0949 51.0031 79.2988 50.763 78.8172ZM83.6627 82.4289C78.6197 82.1882 73.8168 81.9474 69.0139 81.9474L55.5659 81.225C55.5659 81.225 55.806 80.9842 55.806 80.7435C68.2935 81.7066 80.781 81.225 92.7882 82.9105C89.6663 82.6697 86.5444 82.6697 83.6627 82.4289ZM39.7163 82.6697C38.5156 82.9105 37.5551 82.6697 36.3543 83.1513C28.9099 83.6329 26.7486 83.1513 25.788 82.4289C26.5084 82.6697 28.1894 82.6697 31.3113 82.6697L36.3543 82.1882C37.0748 81.7066 37.3149 82.1882 38.2755 81.7066C38.7558 82.4289 39.7163 81.7066 40.6769 81.9474C40.6769 81.9474 40.9171 82.1882 41.1572 82.1882C40.6769 82.4289 40.4368 82.9105 39.7163 82.6697ZM53.4046 81.7066C59.6483 81.9474 65.8921 82.4289 72.3759 82.6697L71.8957 83.1513L64.211 82.6697C61.5695 82.9105 60.1286 83.1513 58.9279 82.9105C57.0067 82.4289 55.0856 82.4289 53.4046 81.7066ZM25.0676 81.9474C25.3077 81.9474 25.0676 81.9474 25.0676 81.9474V81.9474ZM78.1394 83.8736C76.9387 83.8736 75.9781 83.6329 74.7774 84.1144C66.8526 84.3552 60.849 83.3921 65.6519 83.3921C66.3723 83.3921 67.8132 83.6329 68.7738 83.6329H69.7344H74.7774C75.4978 83.1513 75.738 83.6329 76.6985 83.1513C77.1788 83.8736 78.1394 82.9105 79.1 83.1513C79.1 83.1513 79.3401 83.3921 79.5803 83.3921C79.1 83.6329 78.8598 84.1144 78.1394 83.8736ZM91.5875 83.8736C90.3867 83.8736 88.7057 83.3921 87.0247 83.3921C87.0247 83.1513 86.0641 83.3921 85.824 83.3921C85.1036 83.6329 80.3007 83.8736 79.5803 83.8736L80.5408 83.1513H92.548C92.7882 83.3921 92.7882 83.3921 92.7882 83.6329C92.3079 83.8736 92.0677 84.1144 91.5875 83.8736ZM52.2038 84.596C52.9243 83.6329 53.6447 83.6329 53.8848 85.0776C53.1644 85.0776 52.9243 84.8368 52.2038 84.596ZM59.168 84.8368V84.596C59.8885 84.596 60.1286 84.8368 60.6089 84.8368V85.3183C60.1286 85.0775 59.6483 85.0776 59.168 84.8368ZM90.1466 86.5222L89.4262 88.6893C88.4656 88.2077 88.4656 87.7262 89.186 86.763C88.9459 86.5222 88.4656 86.5222 88.2254 86.2815L87.9853 86.0407C88.7057 85.7999 88.9459 85.3183 89.6663 84.8368C90.867 84.3552 91.3473 86.763 90.867 88.4485C90.6269 88.4485 90.6269 86.5222 90.1466 86.5222ZM58.6877 86.0407L58.9279 85.7999C58.9279 86.0407 58.6877 86.0407 58.6877 86.0407ZM114.881 87.0038L113.441 86.5222L113.681 86.0407C113.681 86.0407 114.161 86.5222 114.881 86.763C114.881 87.0038 115.122 86.763 114.881 87.0038ZM93.2685 89.4116C92.3079 88.4485 93.0283 87.7262 93.5086 86.763C93.5086 87.7262 94.229 88.4485 93.2685 89.4116ZM120.165 88.2077C118.243 87.9669 117.283 87.2446 116.082 87.2446V86.763C117.523 86.763 119.204 87.4854 120.645 87.9669C120.645 88.2077 120.165 87.9669 120.165 88.2077ZM59.6483 87.7262H63.4906C62.0497 88.9301 61.5695 88.9301 59.6483 87.7262ZM115.602 89.6524C115.122 89.4116 112 88.4485 111.76 88.2077L111.039 91.3379L112.96 91.8195C113.2 90.6155 115.362 89.6524 115.602 89.6524ZM39.7163 93.0234C38.9959 93.5049 38.5156 94.2273 37.7952 95.1904C36.5945 96.6351 35.3938 98.3206 34.9135 99.7653C34.6733 99.5245 34.4332 99.5245 34.4332 99.2837C34.4332 98.8021 34.6733 98.3206 34.9135 97.839C35.874 96.1535 37.3149 92.7826 38.2755 91.0971C39.4762 90.134 39.4762 90.134 40.4368 90.6155C40.1966 90.8563 39.9565 90.8563 39.7163 93.0234ZM36.5945 90.6155C36.5945 91.8195 34.9135 96.1535 33.7127 96.6351C34.6733 95.4312 35.3938 92.0602 36.5945 90.6155ZM88.4656 108.193C87.9853 110.119 87.2649 112.527 86.7846 113.731C86.5444 114.453 86.7846 115.416 86.7846 116.138C86.5444 117.102 86.3043 117.583 85.5839 117.102C85.5839 116.379 85.824 115.657 85.824 114.694L86.7846 109.156C87.0247 107.952 87.2649 106.989 87.7452 106.026C87.9853 105.303 87.7452 104.581 88.2254 104.099C88.7057 103.136 88.7057 102.655 88.9459 101.21C88.4656 100.728 88.9459 100.006 88.9459 99.5245C89.6663 97.5982 90.3867 95.672 90.6269 93.7457C91.3473 92.7826 91.8276 92.7826 92.3079 92.5418C91.3473 96.3943 91.5875 99.2837 89.9065 102.414C89.186 104.34 88.9459 106.266 88.4656 108.193ZM97.1108 97.839H96.8706C96.8706 96.3943 97.3509 94.7088 97.8312 93.5049H98.0714C97.5911 94.9496 97.3509 96.6351 97.1108 97.839ZM26.7486 102.173C27.469 101.21 28.6697 99.7653 29.3902 98.5614L30.831 96.3943C28.9099 97.839 27.7091 100.006 26.7486 102.173ZM32.9923 98.0798C31.7916 100.488 30.1106 102.173 28.1894 104.581C28.6697 102.895 31.7916 98.3206 32.9923 98.0798ZM30.831 105.062C30.3507 106.026 29.15 107.47 28.1894 108.674C27.9493 109.156 27.7091 109.397 27.469 109.637C26.7486 110.6 26.2683 111.804 25.3077 112.768C24.8274 111.804 25.0676 111.564 25.0676 111.323L26.7486 109.878V109.637C26.5084 109.637 26.5084 109.397 26.2683 109.397C29.15 106.989 30.831 104.34 32.9923 100.728C32.7522 100.488 32.7522 100.488 32.7522 100.247C33.2325 100.247 33.7127 100.247 34.4332 100.006C32.9923 101.451 32.0317 103.618 30.831 105.062ZM95.1896 105.062H94.9495C95.1896 103.618 95.6699 102.895 95.9101 102.414C95.6699 102.895 95.4298 104.099 95.1896 105.062ZM22.1858 113.971L21.9457 113.49V114.453C21.2253 115.175 20.5048 115.898 20.0245 117.102L18.5837 119.509C19.5443 117.342 20.2647 115.898 21.4654 114.453C21.7055 114.212 21.9457 113.731 21.9457 113.49L22.1858 112.768C23.6267 110.119 25.0676 107.952 26.7486 106.026L27.469 105.544V105.785C27.2289 106.026 26.5084 106.507 26.2683 107.23C24.5873 109.156 23.6267 111.323 22.1858 113.971ZM30.5909 107.952C31.5514 106.026 31.7916 105.785 32.9923 106.266L30.5909 107.952ZM29.15 112.045C29.15 112.045 28.6697 111.564 28.1894 111.564C28.6697 110.6 28.9099 110.119 29.3902 109.637H29.6303C29.6303 110.36 29.3902 111.082 29.15 112.045ZM22.9063 116.861C22.6661 115.175 23.6267 113.49 25.3077 113.49C24.107 114.453 23.6267 115.657 22.9063 116.861ZM24.3471 115.657V115.416C24.8274 115.657 25.788 115.657 26.0281 115.657C26.0281 115.898 26.0281 116.138 26.2683 116.379L24.3471 115.657ZM91.5875 119.028C91.8276 118.306 91.3473 117.824 91.3473 117.583L92.548 115.416C92.548 115.416 92.548 115.657 92.7882 115.657C92.548 116.62 92.3079 117.824 91.5875 119.028ZM20.0245 122.158C19.5443 122.88 19.064 123.362 18.5837 123.121C19.5443 121.917 20.5048 120.232 21.2253 118.065H21.9457L20.0245 122.158ZM85.824 124.084H85.1036C85.1036 123.603 85.1036 119.028 85.3437 118.065C85.5839 118.306 85.3437 118.546 85.824 119.028V124.084ZM14.0209 129.622C11.1392 135.642 7.53705 141.18 5.37575 148.163C4.65532 151.533 3.69474 154.904 2.25388 158.035C2.49402 157.072 2.73417 155.868 2.97431 155.386C4.17503 152.015 4.89546 148.403 6.09618 145.273C6.81661 142.143 8.49762 139.494 9.21806 137.327C10.8991 134.679 12.0998 132.03 13.5406 129.863C14.5012 126.251 16.1822 123.603 18.3435 119.991C16.6625 123.362 14.7414 126.251 14.0209 129.622ZM18.3435 125.77C17.6231 125.288 17.383 125.047 17.383 124.807L18.8238 123.603H19.064C19.064 124.325 18.5837 125.047 18.3435 125.77ZM18.8238 129.863C19.7844 128.659 20.2647 126.974 20.9851 125.77C20.0245 126.733 19.3041 128.418 18.8238 129.622C18.5837 129.863 18.8238 129.863 18.8238 129.863ZM2.01373 152.497C2.25388 151.052 2.73417 149.848 2.97431 148.885V150.811C2.49402 151.533 2.25388 152.256 2.25388 152.737C2.25388 152.737 2.01373 152.737 2.01373 152.497Z" fill="#263C43"/>
<path d="M133.843 125.288C135.765 126.011 136.725 125.529 137.205 122.64C137.686 120.954 137.686 119.269 138.166 117.583C138.886 115.416 139.127 113.249 140.087 110.841C141.528 107.952 143.449 105.303 144.89 101.932C146.571 99.0429 148.492 96.6351 150.173 94.2273L154.736 88.2077C155.937 87.0038 157.378 85.7999 158.818 84.596C159.299 83.8736 159.779 82.9105 160.499 82.6697C161.94 81.7066 163.381 81.225 164.342 80.0211C165.783 78.8172 167.223 79.058 168.664 79.058C171.786 80.5027 173.227 79.7803 173.227 79.7803L173.467 78.5764C172.987 77.3725 172.507 76.4094 171.546 75.687C171.066 75.687 170.826 75.2055 170.585 74.9647C169.625 74.0016 168.424 73.0384 167.223 72.0753C164.342 70.3898 160.98 70.3898 157.858 72.7976C155.216 74.4831 152.575 76.4094 150.413 79.5396C148.732 81.225 147.291 82.4289 146.091 84.596C145.851 85.3183 144.89 86.0407 144.17 87.0038C144.17 85.7999 144.65 85.0776 144.65 84.3552C144.89 82.1882 144.65 80.0211 143.929 78.0949C142.969 74.4831 141.048 73.2792 138.646 74.2423C137.926 74.2423 136.965 74.7239 136.485 75.4463C136.245 75.687 136.245 76.6502 136.005 77.1317C135.524 80.5027 134.804 83.6329 134.324 87.0038C133.843 90.134 132.643 93.5049 132.162 96.8759C132.162 99.5245 131.202 102.173 130.722 104.822L128.8 114.694C128.08 117.824 129.281 120.232 130.241 122.64L131.202 121.195C131.682 120.954 132.162 121.436 132.162 121.436C132.162 123.603 132.403 124.566 133.843 125.288ZM146.091 90.134C145.61 87.7262 147.051 86.0407 148.012 85.0776C149.933 83.1513 151.134 80.5027 153.535 79.7803C154.016 79.5395 154.256 78.5764 154.976 77.6133C155.697 78.0949 156.417 74.9647 157.137 76.891C154.736 79.5396 152.575 82.4289 149.933 85.0776C149.693 85.3183 149.693 85.5591 149.693 85.5591C148.252 86.5222 146.811 87.7262 146.091 90.134ZM150.654 88.2077C151.854 86.763 152.575 85.3183 153.775 84.3552C154.496 83.3921 155.697 82.9105 157.137 82.1882C155.937 83.3921 155.216 84.8368 153.775 85.5591C152.815 86.0407 152.335 88.4485 150.654 88.2077Z" fill="#263C43"/>
<path d="M192.028 131.067C192.988 131.308 193.709 130.345 194.429 129.622C196.35 128.9 198.752 128.418 200.913 127.455C201.874 126.974 203.074 126.733 203.795 126.251C203.795 125.288 203.555 124.566 203.795 124.325C204.755 123.121 205.476 121.195 207.637 121.436C207.637 121.436 207.637 121.195 207.877 121.195L211.96 118.065C209.318 117.102 208.117 117.342 207.637 118.787C208.117 118.787 208.838 119.028 209.558 119.028C208.357 119.509 207.397 119.75 206.436 119.028C205.716 118.546 204.755 118.787 204.035 118.787C204.755 115.898 207.157 117.102 208.838 116.379C209.078 115.898 209.318 115.898 209.318 115.657C211.72 113.49 214.121 111.564 216.522 109.637C217.723 108.915 218.924 107.952 219.644 107.23H219.884C219.644 107.952 219.644 108.433 219.404 108.915C220.125 109.878 220.845 109.637 221.806 108.915C222.286 108.674 222.766 108.433 223.246 108.433C223.006 108.915 222.526 109.637 222.526 110.119C222.526 110.119 222.526 110.36 222.766 110.36C223.487 109.637 224.927 108.915 224.927 107.47C226.608 107.23 228.289 106.748 228.77 104.822C227.809 104.34 227.809 104.099 227.329 103.618C227.329 103.377 227.329 103.136 227.569 103.136C227.809 103.136 228.049 103.136 228.289 102.895C229.25 102.655 230.211 101.932 231.411 101.21C231.892 100.969 231.892 100.488 232.372 100.006C232.372 99.7653 232.852 99.2837 233.092 99.0429C233.573 98.5614 233.573 98.3206 233.813 98.0798C234.053 97.1167 235.494 96.8759 235.013 95.672C235.013 95.4312 235.254 94.9496 235.494 94.9496C236.935 94.2273 237.175 93.0234 237.415 91.5787C237.655 91.3379 237.175 91.0971 237.175 90.6155C236.935 90.8563 236.454 91.0971 236.214 91.0971C235.013 92.0602 233.573 93.2642 232.372 93.9865C232.372 93.9865 232.372 94.4681 232.132 94.9496C231.411 93.9865 231.171 94.9496 230.931 95.1904C229.73 95.9128 229.01 96.3943 228.53 97.1167C226.608 98.3206 224.207 99.7653 222.526 101.21C222.526 101.21 222.286 101.451 222.526 101.692C223.487 101.21 223.967 100.969 224.447 100.488C224.447 100.969 224.207 101.21 224.207 101.21C222.526 102.655 221.085 103.859 219.164 105.062C216.522 107.23 213.881 109.397 210.999 111.564L204.995 115.416C204.755 115.657 204.275 115.898 203.555 115.898V115.657C204.275 115.175 204.755 114.935 205.236 114.694V114.212C204.755 114.453 204.275 114.453 203.795 114.935C202.594 115.657 201.874 116.379 200.913 116.861C199.472 117.824 197.791 118.546 196.11 119.028C194.669 119.991 192.748 120.232 190.827 120.713C187.705 121.917 184.583 122.158 181.702 122.158C180.981 121.917 180.261 121.676 180.021 120.954C179.54 118.787 179.3 116.138 180.261 113.971C181.461 109.878 183.142 105.785 185.544 102.173C186.985 100.006 188.426 98.0798 189.626 96.1535C190.827 94.2273 192.508 93.0234 193.469 91.0971C194.669 88.9301 196.831 87.4854 198.992 86.5222C199.712 86.0407 199.952 86.0407 200.433 87.0038C200.673 87.7262 201.393 88.4485 202.114 89.1709C203.074 89.8932 204.275 90.3748 205.476 91.0971C206.196 91.5787 207.637 91.8195 208.117 91.0971C208.838 90.134 209.558 89.4116 209.558 88.4485C210.038 87.4854 210.038 86.2815 209.798 85.7999C208.838 84.596 207.637 83.3921 206.196 82.4289C205.236 81.4658 203.795 80.9843 202.354 80.2619C201.153 79.5396 199.952 78.5764 198.752 78.0949C197.791 77.6133 196.59 78.0949 195.63 77.8541C193.469 77.1317 191.307 77.6133 189.386 79.5396C188.426 80.2619 186.024 83.1513 185.784 83.3921C185.544 83.8736 185.064 84.3552 184.583 85.0776C184.103 85.0776 183.863 85.5591 183.623 86.0407C179.54 91.5787 173.056 101.692 172.576 111.564C172.096 113.008 172.096 114.694 172.096 115.898C172.336 117.824 172.816 119.269 173.056 120.713C173.537 121.917 174.017 123.121 174.737 124.084C175.938 125.288 177.139 126.733 178.339 127.696C180.02 128.659 181.702 129.141 183.142 129.863C184.103 130.104 185.544 130.104 186.264 130.345L192.028 131.067ZM211.96 116.62C212.68 115.898 213.641 115.416 214.601 114.694C214.361 115.175 214.361 115.657 214.361 115.898C217.003 115.416 218.684 113.249 220.845 111.804C221.085 111.804 220.845 111.564 220.845 111.082C220.365 111.323 219.884 111.564 219.404 111.564C218.684 110.119 217.243 111.323 216.042 111.564C215.082 111.564 214.361 111.804 214.121 113.008C214.601 113.008 215.322 113.008 215.562 113.249C215.082 113.731 214.361 113.971 213.881 113.971C212.44 113.971 211.72 114.694 211.96 116.62ZM204.755 126.011C205.476 125.529 206.436 124.807 207.157 124.566C204.515 124.325 204.275 124.566 204.755 126.011Z" fill="#263C43"/>
<path d="M296.605 51.6088C298.286 47.9971 298.046 47.5155 296.845 45.5892C297.085 43.9037 296.845 42.2183 295.164 41.7367C294.924 41.7367 294.924 41.4959 294.924 41.0144C294.444 39.8104 292.763 40.292 292.042 40.5328C290.121 40.7736 281.956 41.4959 277.153 40.7736C268.508 39.5697 262.985 39.0881 260.583 38.8473C261.784 36.6803 262.024 34.5132 262.985 32.587C264.425 29.4568 266.107 26.3266 266.827 23.4372C269.228 19.3439 271.15 15.0099 273.071 10.435C273.791 8.74952 274.512 7.5456 272.59 6.34169C272.11 5.61934 271.15 5.13777 270.909 4.41543C270.669 2.48917 268.508 2.00761 266.587 0.803696C266.107 0.562917 265.626 0.562917 265.386 0.0813436C264.425 -0.159436 263.705 0.0813431 263.225 1.52604C262.744 3.21152 261.784 5.61934 261.304 7.30482C260.583 8.50874 259.863 8.99029 259.863 9.95342C258.422 12.8428 257.942 15.4914 256.741 18.14C256.02 21.0294 254.58 23.678 253.859 26.0858C252.899 28.4937 251.938 30.6607 251.218 33.0685C250.257 34.5132 249.777 36.1987 249.296 37.6434H249.056L233.687 34.754C232.006 34.9948 229.124 36.4395 228.644 38.3657C228.164 39.0881 227.443 40.5328 229.124 40.7736C228.644 41.7367 228.404 42.4591 230.085 42.9406C230.565 43.1814 230.325 42.4591 230.805 43.1814H231.286C231.766 43.4222 232.246 42.6998 232.486 43.4222C233.207 44.3853 235.368 45.83 236.569 45.1077L241.372 45.5892L245.934 46.3116C245.694 46.5524 245.694 47.0339 245.454 47.2747L242.572 55.9429L234.888 80.0211C235.128 80.2619 235.128 80.7435 235.368 80.9843H234.888C234.407 82.1882 233.687 82.9105 233.687 83.8736C232.726 87.0038 232.726 89.6524 231.766 92.301L230.085 99.0429C229.605 101.932 228.644 104.822 228.884 107.711C228.404 112.768 227.683 117.583 228.644 122.399C229.605 127.214 230.565 132.03 233.207 135.883C233.687 136.364 234.167 136.846 234.648 137.568C236.569 139.735 237.529 141.18 239.691 141.902C243.053 144.069 243.773 143.828 247.375 143.588H246.895C248.336 143.588 248.816 143.347 249.296 142.625C250.497 140.698 252.658 139.254 251.938 136.846C251.938 136.846 249.056 138.29 247.135 138.05C244.974 138.29 244.734 138.05 242.572 136.846L240.891 134.92C240.411 134.438 239.451 133.475 239.451 131.789C238.97 130.104 238.49 128.418 238.73 126.733C238.73 125.77 238.73 125.047 237.77 124.807C238.73 124.325 238.01 124.084 237.529 123.603C238.73 123.362 238.49 119.028 237.529 117.824C238.01 117.102 238.49 116.138 238.73 115.416C238.25 115.175 238.01 114.935 238.25 114.935C238.49 114.694 238.73 114.212 238.73 113.731C238.73 111.804 238.97 110.119 239.691 107.952C239.451 107.23 239.691 106.026 239.931 105.062C239.931 104.34 240.651 103.377 240.651 102.895C240.651 101.692 241.372 100.247 240.651 99.0429C241.132 98.3206 241.852 97.5982 242.092 96.8759C242.332 94.2273 243.293 91.5787 244.013 88.9301C244.013 87.4854 244.734 86.0407 245.454 84.596C245.694 82.4289 246.895 80.0211 247.375 77.6133C247.615 76.6502 248.096 75.687 248.576 74.4831C249.056 73.0384 248.816 71.5937 249.537 69.9083C249.537 69.4267 249.296 68.9451 249.537 68.9451C250.977 68.4636 250.737 67.5004 250.497 67.0189C250.257 66.5373 250.737 66.0557 250.737 65.5742C251.698 64.611 252.418 62.9256 252.178 61.9624C252.658 61.2401 253.139 60.7585 252.899 60.277C252.418 59.3138 253.379 57.3876 254.339 56.906L256.981 48.7194C256.981 48.4786 256.981 47.9971 257.221 47.5155L258.662 47.7563C259.382 47.5155 260.103 47.9971 261.304 47.7563C262.264 48.2378 263.465 48.2378 264.906 48.4786C271.87 49.6825 274.271 49.6825 277.633 50.4049C283.637 51.6088 293.963 57.1468 296.605 51.6088ZM249.056 53.2943C249.537 53.0535 249.777 53.0535 250.017 53.0535L247.856 56.1837L246.895 58.8323V60.9993C246.895 61.7217 246.895 61.7216 246.415 62.2032C245.694 63.1663 245.454 63.8887 245.214 64.8518C244.734 67.2596 244.013 69.1859 242.813 71.5937C242.813 71.5937 241.852 72.7976 242.332 73.2792C242.572 75.2055 240.171 76.4094 240.891 78.5764C241.372 78.8172 241.132 79.2988 241.132 80.0211C241.132 80.2619 241.372 80.2619 241.612 80.5027C244.253 72.7976 246.415 63.6479 249.056 56.4244C249.777 55.9429 250.017 55.4613 250.257 54.9797L251.698 52.8127C251.458 54.2574 249.537 58.8323 249.537 58.8323C249.296 61.7216 247.856 64.3703 247.375 67.0189C246.895 68.9451 244.734 70.8714 245.214 73.0384C245.454 73.2792 244.974 73.7608 244.734 74.2423C245.934 74.4831 245.694 75.4463 245.454 76.4094C245.214 77.3725 244.734 78.5764 244.734 79.7803C244.253 79.2988 244.013 79.058 243.533 78.8172C243.293 80.0211 242.572 80.9843 242.092 82.1882H243.293C243.053 82.9105 243.053 83.1513 243.053 83.8736L242.092 82.4289C241.852 83.1513 241.852 83.6329 241.612 84.1144C241.372 84.596 241.612 85.0775 241.612 85.7999L240.651 86.0407C240.891 87.0038 241.372 87.7262 240.171 88.2077V88.9301C239.931 90.3748 239.691 91.8195 239.21 93.0234C238.97 93.2642 238.73 93.5049 238.25 94.2273C238.49 94.7088 240.651 94.7088 239.691 95.9128C239.451 95.4312 238.73 95.1904 238.25 94.7088C238.25 95.4312 238.25 95.672 238.01 96.1535C238.73 96.1535 239.21 96.8759 239.451 97.1167C239.451 97.3575 239.21 97.3575 238.49 97.5982C238.01 97.839 237.77 98.0798 237.529 98.3206C237.049 100.728 236.569 103.136 235.608 105.785C235.608 106.507 235.848 107.23 236.088 107.952H235.128C234.648 106.266 235.128 104.581 235.608 103.136C235.848 100.969 236.329 99.0429 237.289 96.6351C237.289 96.3943 237.77 96.1535 238.01 96.1535C238.01 95.9128 237.529 95.9128 237.289 95.9128C237.049 95.1904 237.289 94.7089 237.529 93.7457C238.01 92.301 238.25 90.8563 238.97 89.6524C239.21 86.763 240.411 84.1144 241.372 81.7066C241.372 81.225 241.132 80.9842 241.132 80.5027C240.891 81.7066 238.73 81.7066 239.21 83.1513C239.451 83.1513 239.691 83.3921 239.691 83.3921C238.49 84.1144 238.49 84.1144 239.691 84.596C239.451 84.8368 238.73 85.0775 238.25 85.3183C238.25 86.0407 238.73 86.2815 238.73 86.763H238.25C238.01 88.4485 237.289 90.134 236.809 91.8195C236.569 92.0602 236.809 92.7826 236.809 93.0234C236.088 94.2273 235.848 95.672 235.608 96.6351C235.608 96.8759 235.368 97.1167 235.368 97.1167C234.648 99.0429 234.648 100.969 234.648 102.895C234.408 103.136 234.167 103.136 233.927 103.859C233.927 104.099 234.167 104.34 234.407 104.34C233.447 104.822 232.967 105.303 233.447 106.026C233.927 106.748 233.447 107.47 233.687 107.952C233.687 108.674 233.447 109.397 233.207 110.119C233.207 110.841 232.726 112.286 232.726 113.249C232.726 115.175 232.486 117.102 232.486 119.269C232.726 121.195 232.486 122.88 232.486 124.807C232.246 124.807 232.246 124.807 232.006 125.047C231.766 124.807 231.286 124.325 231.286 123.844C232.006 122.158 232.246 120.473 231.045 118.787C230.805 118.065 231.286 117.583 231.286 117.102C231.286 115.898 231.045 114.212 231.286 113.249C231.766 111.564 231.045 109.878 232.726 108.915C232.486 108.674 232.246 108.674 232.246 108.433C232.006 107.711 231.526 106.507 231.766 106.266C232.486 105.785 231.766 105.303 232.006 104.822C232.006 104.581 231.766 104.34 231.766 104.34C232.486 102.655 232.486 100.969 233.207 99.0429C233.207 98.8022 233.447 98.0798 234.407 97.5982L233.927 96.6351C234.167 96.1535 234.888 96.1535 234.167 94.7088C233.687 94.7088 234.167 94.4681 234.167 94.2273C235.608 92.7826 236.089 90.8563 235.848 88.9301C235.608 87.9669 236.088 87.0038 236.809 85.7999C237.289 85.0775 237.77 84.596 237.529 83.8736C237.77 82.6697 237.77 81.225 238.49 80.2619C239.451 79.058 238.73 78.0949 239.451 76.891C240.411 75.2055 241.132 73.52 241.132 71.8345C242.332 69.9083 242.813 67.7412 243.773 65.8149C243.773 64.3703 244.494 63.1663 245.454 61.7216C245.454 60.5177 246.175 58.3507 246.655 56.6652L247.615 55.2205C248.576 53.535 248.576 52.3311 249.056 50.6456H250.017C249.537 49.201 250.257 47.9971 250.737 46.7931L251.938 47.0339C251.458 49.201 250.977 51.368 249.056 53.2943ZM251.938 52.3311H251.698L252.658 49.201C253.139 48.9602 253.379 48.9602 253.379 48.7194C253.619 48.9602 253.859 48.9602 253.859 49.4417L251.938 52.3311ZM230.085 117.583C228.644 116.62 229.605 114.935 229.845 113.731C229.845 113.008 229.364 112.045 229.845 111.323C229.845 109.156 230.085 107.47 229.845 105.785C230.565 103.618 230.325 101.692 230.805 99.7653C231.526 96.8759 232.246 93.9865 233.207 91.0971C233.687 88.4485 234.407 86.0407 234.888 83.1513L237.049 76.4094C238.25 73.2792 238.73 70.3898 240.171 67.5004C240.891 64.611 242.332 61.7216 242.572 58.8323C242.813 58.5915 243.053 57.3876 243.533 56.6652C243.533 56.6652 244.974 53.7758 245.454 53.0535C245.934 54.2574 245.694 55.7021 244.734 56.1837L244.013 58.3507C242.813 62.444 241.372 66.5373 239.691 70.3898C239.451 72.7976 238.49 75.2055 238.01 77.6133C237.289 80.2619 236.089 82.9105 235.608 85.3183C234.888 88.6893 233.927 91.3379 232.967 94.7088C232.726 97.5982 231.526 100.728 231.286 103.618L229.845 113.731C230.085 114.935 230.325 116.379 230.085 117.583ZM315.576 90.8563C316.777 88.6893 316.537 87.2446 315.816 86.5222L306.931 95.672C303.329 99.0429 299.967 102.655 296.365 106.026C292.522 109.637 288.2 112.286 284.598 115.898C282.676 117.824 280.275 118.306 277.633 119.028C277.874 116.62 278.594 114.453 278.594 112.286C278.594 109.878 280.275 107.711 279.795 105.544C279.555 105.062 279.795 104.822 280.035 104.34C280.275 103.377 280.995 102.414 281.476 101.451L286.519 85.3183C286.759 84.1144 287.239 82.9105 287.239 81.4658C287.719 80.2619 287.479 78.8172 286.999 77.8541C286.519 76.8909 285.558 75.9278 284.598 75.2055C283.637 74.2423 281.956 73.52 281.236 72.3161C280.515 71.1122 280.035 71.5937 279.314 71.8345C278.354 71.8345 277.874 72.5569 278.114 73.52V74.9647C276.913 79.2988 275.712 83.3921 274.752 87.7262C273.791 90.8563 270.669 101.451 269.949 104.581C268.748 108.915 267.788 113.249 268.268 117.583C268.508 118.546 269.228 119.028 269.709 119.991C270.189 120.473 270.429 121.195 270.669 121.917C270.909 122.399 270.909 123.121 271.39 123.362C273.311 124.566 274.031 126.733 276.433 127.455C278.114 127.937 279.555 128.659 281.236 128.178L286.038 126.011C287.479 125.529 289.16 125.288 290.121 124.566C291.322 123.603 292.522 122.64 293.483 121.436C295.164 119.509 296.605 117.824 298.526 116.62L299.967 115.416C300.447 114.935 300.447 114.212 300.927 113.731C301.648 112.768 302.608 112.286 303.809 111.082C304.049 110.841 303.809 110.6 303.809 110.119L301.168 111.804C301.168 111.564 301.168 111.564 300.927 111.564C301.168 111.082 301.408 110.6 301.648 110.36C302.849 109.397 304.289 108.674 304.77 107.23L302.368 108.915C302.368 108.433 302.608 107.952 302.849 107.711C303.809 106.748 304.289 106.266 304.77 105.544C305.97 104.34 307.411 103.136 308.612 101.932L313.415 96.1535L313.175 95.9128C312.935 95.9128 312.694 96.1535 312.454 96.1535C310.293 98.3206 308.372 100.488 306.211 102.414C305.25 103.377 304.289 104.099 304.53 105.544C303.809 105.785 303.089 106.266 302.368 106.507C302.128 106.026 302.128 105.785 301.888 105.544C302.608 105.303 303.089 105.303 303.809 105.303C303.809 104.822 303.569 104.34 303.569 104.099H301.648C301.408 104.099 301.168 104.581 300.927 104.822C300.207 103.618 302.128 101.692 304.53 100.728C304.289 100.969 304.289 101.21 304.289 101.21L302.849 102.655C303.089 102.655 303.329 102.895 303.329 102.895C304.289 102.173 305.01 101.451 305.73 100.488C306.211 100.247 306.931 100.006 305.97 99.2837C305.73 99.2837 305.73 98.3206 306.211 97.839C306.451 97.5982 306.931 97.1167 307.171 97.1167C308.132 97.1167 308.372 96.8759 308.132 95.9128C308.132 95.672 308.372 95.672 308.372 95.4312H308.612C308.852 95.9128 308.852 96.6351 309.092 97.1167C310.053 97.839 310.533 97.1167 311.254 96.3943C311.974 95.672 312.454 94.9496 312.214 93.9865C312.694 93.9865 313.415 94.2273 313.415 93.9865L314.856 92.0602C314.616 91.8195 314.135 91.5787 313.655 91.3379C313.895 91.0971 314.135 91.0971 314.616 91.0971C314.856 91.0971 315.336 91.0971 315.576 90.8563ZM242.572 87.9669C242.572 88.6893 241.852 89.1708 240.891 89.8932C241.372 88.6893 241.372 87.4854 241.852 86.0407H242.572C242.092 86.5222 242.572 87.4854 242.572 87.9669ZM305.97 106.989C305.97 107.47 306.451 107.711 306.691 107.952C307.411 106.989 307.651 106.266 307.892 105.544C307.651 105.303 307.651 105.303 307.411 105.303L305.97 106.989ZM301.168 105.544C300.447 106.266 299.727 106.989 298.526 107.711L298.766 107.952C299.246 107.952 299.487 107.711 299.727 107.711C299.727 107.952 299.967 107.952 299.967 108.193C298.526 108.674 297.325 109.156 295.884 109.397V109.156C298.046 108.433 298.766 105.544 301.168 105.544ZM236.329 113.249C235.368 114.212 234.888 114.453 234.648 114.935C234.167 114.935 234.648 115.657 234.407 116.138C234.888 115.898 235.608 115.657 235.608 115.416C235.608 115.175 235.608 114.694 235.608 114.694H236.088C236.088 115.416 236.089 116.62 235.848 117.583C235.608 117.342 235.128 117.342 234.888 117.342C235.128 117.102 235.128 116.861 235.608 116.138C234.407 117.342 234.167 117.583 233.687 118.065L233.447 118.306C233.687 116.861 233.687 115.898 233.687 114.694C233.927 113.249 234.167 112.527 234.167 111.564C234.407 111.323 234.407 111.082 234.407 111.082L234.888 111.804C236.569 111.804 235.608 109.878 237.049 109.878C236.809 111.323 236.089 112.527 236.329 113.249ZM236.329 123.362C236.329 123.844 236.809 124.807 236.088 125.529H235.848C236.089 124.807 235.128 123.844 234.888 123.362C235.128 122.399 235.608 121.436 235.848 120.473C236.329 120.713 236.569 120.954 236.809 121.195C236.569 121.195 236.329 121.436 236.329 121.436C236.089 121.917 236.089 122.64 236.329 123.362Z" fill="#263C43"/>
<path d="M325.702 131.067C326.662 131.308 327.383 130.345 328.103 129.622C330.024 128.9 332.426 128.418 334.587 127.455C335.548 126.974 336.748 126.733 337.469 126.251C337.469 125.288 337.229 124.566 337.469 124.325C338.429 123.121 339.15 121.195 341.311 121.436C341.311 121.436 341.311 121.195 341.551 121.195L345.634 118.065C342.992 117.102 341.791 117.342 341.311 118.787C341.791 118.787 342.512 119.028 343.232 119.028C342.031 119.509 341.071 119.75 340.11 119.028C339.39 118.546 338.429 118.787 337.709 118.787C338.429 115.898 340.831 117.102 342.512 116.379C342.752 115.898 342.992 115.898 342.992 115.657C345.393 113.49 347.795 111.564 350.196 109.637C351.397 108.915 352.598 107.952 353.318 107.23H353.558C353.318 107.952 353.318 108.433 353.078 108.915C353.798 109.878 354.519 109.637 355.479 108.915C355.96 108.674 356.44 108.433 356.92 108.433C356.68 108.915 356.2 109.637 356.2 110.119C356.2 110.119 356.2 110.36 356.44 110.36C357.16 109.637 358.601 108.915 358.601 107.47C360.282 107.23 361.963 106.748 362.444 104.822C361.483 104.34 361.483 104.099 361.003 103.618C361.003 103.377 361.003 103.136 361.243 103.136C361.483 103.136 361.723 103.136 361.963 102.895C362.924 102.655 363.885 101.932 365.085 101.21C365.566 100.969 365.566 100.488 366.046 100.006C366.046 99.7653 366.526 99.2837 366.766 99.0429C367.247 98.5614 367.247 98.3206 367.487 98.0798C367.727 97.1167 369.168 96.8759 368.687 95.672C368.687 95.4312 368.928 94.9496 369.168 94.9496C370.609 94.2273 370.849 93.0234 371.089 91.5787C371.329 91.3379 370.849 91.0971 370.849 90.6155C370.609 90.8563 370.128 91.0971 369.888 91.0971C368.687 92.0602 367.247 93.2642 366.046 93.9865C366.046 93.9865 366.046 94.4681 365.806 94.9496C365.085 93.9865 364.845 94.9496 364.605 95.1904C363.404 95.9128 362.684 96.3943 362.204 97.1167C360.282 98.3206 357.881 99.7653 356.2 101.21C356.2 101.21 355.96 101.451 356.2 101.692C357.16 101.21 357.641 100.969 358.121 100.488C358.121 100.969 357.881 101.21 357.881 101.21C356.2 102.655 354.759 103.859 352.838 105.062C350.196 107.23 347.555 109.397 344.673 111.564L338.669 115.416C338.429 115.657 337.949 115.898 337.229 115.898V115.657C337.949 115.175 338.429 114.935 338.91 114.694V114.212C338.429 114.453 337.949 114.453 337.469 114.935C336.268 115.657 335.548 116.379 334.587 116.861C333.146 117.824 331.465 118.546 329.784 119.028C328.343 119.991 326.422 120.232 324.501 120.713C321.379 121.917 318.257 122.158 315.375 122.158C314.655 121.917 313.935 121.676 313.694 120.954C313.214 118.787 312.974 116.138 313.935 113.971C315.135 109.878 316.816 105.785 319.218 102.173C320.659 100.006 322.099 98.0798 323.3 96.1535C324.501 94.2273 326.182 93.0234 327.142 91.0971C328.343 88.9301 330.504 87.4854 332.666 86.5222C333.386 86.0407 333.626 86.0407 334.107 87.0038C334.347 87.7262 335.067 88.4485 335.788 89.1709C336.748 89.8932 337.949 90.3748 339.15 91.0971C339.87 91.5787 341.311 91.8195 341.791 91.0971C342.512 90.134 343.232 89.4116 343.232 88.4485C343.712 87.4854 343.712 86.2815 343.472 85.7999C342.512 84.596 341.311 83.3921 339.87 82.4289C338.91 81.4658 337.469 80.9843 336.028 80.2619C334.827 79.5396 333.626 78.5764 332.426 78.0949C331.465 77.6133 330.264 78.0949 329.304 77.8541C327.142 77.1317 324.981 77.6133 323.06 79.5396C322.099 80.2619 319.698 83.1513 319.458 83.3921C319.218 83.8736 318.737 84.3552 318.257 85.0776C317.777 85.0776 317.537 85.5591 317.297 86.0407C313.214 91.5787 306.73 101.692 306.25 111.564C305.77 113.008 305.77 114.694 305.77 115.898C306.01 117.824 306.49 119.269 306.73 120.713C307.211 121.917 307.691 123.121 308.411 124.084C309.612 125.288 310.813 126.733 312.013 127.696C313.694 128.659 315.375 129.141 316.816 129.863C317.777 130.104 319.218 130.104 319.938 130.345L325.702 131.067ZM345.634 116.62C346.354 115.898 347.315 115.416 348.275 114.694C348.035 115.175 348.035 115.657 348.035 115.898C350.677 115.416 352.358 113.249 354.519 111.804C354.759 111.804 354.519 111.564 354.519 111.082C354.039 111.323 353.558 111.564 353.078 111.564C352.358 110.119 350.917 111.323 349.716 111.564C348.755 111.564 348.035 111.804 347.795 113.008C348.275 113.008 348.996 113.008 349.236 113.249C348.755 113.731 348.035 113.971 347.555 113.971C346.114 113.971 345.393 114.694 345.634 116.62ZM338.429 126.011C339.15 125.529 340.11 124.807 340.831 124.566C338.189 124.325 337.949 124.566 338.429 126.011Z" fill="#263C43"/>
<path d="M546.932 20.5478C545.972 18.3808 544.291 15.973 542.37 14.5283C536.606 10.1942 526.28 9.47186 518.836 10.1942C508.75 11.1573 501.545 14.0467 487.617 20.5478C482.094 23.1965 477.531 26.5674 472.488 30.4199C468.645 33.3093 465.283 36.6803 462.882 40.7736C458.079 47.9971 457.359 56.1837 461.201 64.8518C464.563 72.7976 473.448 79.2988 477.771 81.9474C482.574 85.0775 487.377 88.4485 492.66 91.0971C500.344 94.7089 507.789 99.2837 514.033 105.062C517.635 108.433 520.997 111.804 522.918 116.379C525.32 121.436 524.359 126.011 521.717 130.104C519.556 133.475 516.434 136.846 513.072 139.013C504.667 144.551 492.18 150.811 479.212 152.737C473.689 153.701 468.165 153.941 462.642 153.701C458.079 153.46 453.276 152.015 448.473 149.126C441.749 145.032 439.108 134.197 439.588 126.974C440.308 117.583 446.312 112.768 454.237 110.36C458.319 108.915 451.115 101.692 445.352 104.581C444.151 105.062 438.627 107.23 434.305 111.804C434.785 111.804 435.025 112.045 435.025 112.286L433.344 113.008C430.703 116.379 428.782 120.473 429.022 126.251C429.742 142.865 441.029 155.145 458.559 158.275C468.886 159.961 479.212 160.202 489.538 158.516C504.907 156.108 523.158 148.163 530.362 138.05C533.484 133.475 534.685 128.418 532.524 122.399C529.642 115.416 525.56 109.397 519.796 104.34C512.352 97.839 504.187 92.5418 495.301 87.9669C493.62 87.0038 491.939 86.2815 490.258 85.0776C486.176 82.6697 481.613 80.2619 477.531 77.3725C469.606 71.1122 464.083 60.9993 470.086 49.9233C476.33 39.0881 487.377 34.0317 490.979 30.9015L496.742 26.5674C497.223 24.8819 497.943 24.1596 499.144 24.1596C500.104 24.1596 501.785 23.678 502.506 23.1965C503.466 22.7149 503.947 22.2333 504.907 21.511C505.868 19.8255 508.75 18.8624 513.072 19.3439C512.832 19.1032 513.072 18.3808 513.552 18.3808C515.474 17.6585 517.875 17.6585 520.036 17.1769C520.036 17.1769 523.158 17.6585 524.599 16.6953L528.922 17.1769C531.563 17.4177 535.886 19.8255 537.567 23.1965C539.488 27.049 539.488 30.6607 539.008 34.5132C538.047 41.4959 535.886 44.1445 531.323 48.4786C528.201 51.6088 525.079 52.5719 525.8 54.4982C529.402 60.5177 533.484 59.073 538.527 55.2205C548.613 46.7931 551.975 32.1054 546.932 20.5478ZM488.337 25.6043C486.176 27.049 483.534 28.2529 480.893 29.6976C478.732 30.6607 477.051 32.1054 475.61 33.5501C473.688 34.2724 472.248 35.7172 471.047 37.4026C470.567 37.8842 470.327 38.125 469.846 38.3657L469.606 37.8842C473.929 31.3831 482.094 27.7713 489.058 23.678C489.058 24.4004 489.058 24.8819 488.337 25.6043ZM528.201 127.937C527.481 126.251 527.241 125.529 527.241 125.047C527 124.566 527.241 124.084 527 123.121C528.441 124.325 528.441 125.529 528.201 127.937ZM434.065 140.458C433.344 137.327 432.384 134.197 431.663 131.549C432.864 132.271 434.785 138.531 434.065 140.458ZM521.717 136.123C520.276 138.05 519.076 138.772 517.155 139.976C517.875 137.327 518.836 136.846 520.757 135.401L523.158 132.752C523.158 134.438 522.918 134.92 521.717 136.123Z" fill="#263C43"/>
<path d="M589.012 113.731C589.492 113.49 589.732 113.249 590.453 113.008C589.252 112.527 588.051 112.286 587.331 111.804C588.292 110.841 589.492 109.878 590.453 109.156C590.693 108.915 590.693 108.915 590.453 108.674C589.973 108.915 589.252 109.156 588.532 109.156C588.772 108.915 588.532 108.674 588.292 108.433C588.532 108.193 589.012 107.711 589.252 107.23C589.252 107.23 589.252 107.23 589.012 106.989L588.292 107.47C585.89 108.915 583.008 110.36 580.367 112.045C579.166 112.768 577.965 112.768 576.765 113.249C574.844 113.971 572.922 114.935 571.241 115.657C569.08 116.379 566.919 117.342 564.757 117.583C561.636 118.065 558.514 117.824 555.392 118.065C553.471 117.342 552.99 116.861 552.03 113.971C553.711 113.008 554.431 112.768 556.352 111.804C556.833 111.323 557.313 110.6 558.033 110.36C559.474 109.397 561.395 108.674 563.076 107.711C563.317 107.47 563.317 106.748 563.557 106.507C564.517 106.026 565.238 105.785 565.958 105.303C565.958 105.303 565.718 105.062 565.238 105.062L566.919 104.099C567.879 103.618 569.56 103.377 569.801 101.692C570.041 100.969 571.482 100.728 572.202 100.006C574.363 97.839 576.525 95.672 578.686 93.2641C579.406 92.5418 580.127 91.3379 580.607 90.134C581.327 88.2077 580.127 84.1144 578.206 82.9105C576.525 81.4658 574.603 80.0211 572.442 79.058C570.761 78.0949 568.6 76.4094 566.198 77.3725C565.238 77.6133 564.517 77.8541 563.797 77.8541C560.675 78.0949 558.033 79.5396 555.872 81.7066C553.711 84.1144 551.55 86.5223 549.388 89.1709C548.188 90.6156 547.227 92.0602 546.266 93.5049C543.865 98.0798 542.664 102.655 542.424 107.47C542.424 109.156 542.184 110.841 543.385 113.731C543.865 116.138 543.865 116.138 544.345 116.62C545.786 118.787 546.747 120.232 548.428 121.436C548.668 121.676 549.388 121.917 549.628 122.399C552.03 124.325 552.99 124.566 555.152 125.288C557.313 126.011 559.955 126.492 562.356 126.733C564.277 126.974 565.958 126.492 567.879 126.011C569.08 125.77 570.521 125.529 571.482 125.047C572.202 124.566 572.682 124.325 573.643 124.325C575.324 124.084 577.005 124.084 578.446 123.362C580.847 122.399 582.768 120.713 584.93 119.509C586.611 118.306 588.051 117.342 589.973 116.379L594.535 112.768C595.496 112.045 596.697 111.082 597.657 110.119C597.897 109.878 597.897 109.397 598.138 108.915C595.016 110.6 592.374 113.249 589.252 114.212C589.252 114.212 589.012 113.971 589.012 113.731ZM553.471 99.2837C554.912 96.3943 556.593 93.5049 558.514 90.8563C560.195 88.6893 562.356 87.4854 564.517 85.7999C566.438 84.3552 568.6 84.3552 570.761 83.3921C571.722 82.9105 572.922 85.0776 572.202 86.2815C571.241 87.9669 570.281 89.4116 568.84 90.6155C566.679 92.7826 564.758 94.4681 562.356 96.3943C562.356 96.6351 562.356 96.8759 562.116 97.1167C563.077 96.6351 563.797 96.1535 564.517 95.672C565.478 95.1904 565.958 94.7088 566.438 94.2273L566.919 94.7088C564.758 96.1535 562.836 97.839 560.675 99.2837C560.435 99.2837 560.435 99.0429 560.435 99.0429C560.915 98.3206 561.636 97.839 562.116 97.1167C560.435 97.1167 559.714 98.5614 558.274 99.7653C558.994 99.7653 559.234 99.5245 559.955 99.5245C558.994 100.488 557.793 101.21 557.073 101.692C556.833 101.932 556.352 101.692 555.872 101.692C554.912 102.414 553.711 103.136 551.79 104.34C552.27 102.414 552.75 100.728 553.471 99.2837ZM574.844 85.5591L575.564 87.4854C574.844 88.9301 573.643 90.6155 572.922 92.0602C572.202 89.4116 573.163 87.4854 574.844 85.5591ZM607.983 97.3575C608.704 96.8759 609.184 96.1535 609.905 95.672C609.905 95.4312 609.664 95.4312 609.664 95.4312L609.184 93.7457L605.102 96.3943H605.582L606.543 95.672L606.783 95.9128L605.582 96.8759C605.582 97.1167 605.822 97.3575 606.062 97.839C604.862 98.0798 604.141 98.0798 603.421 98.0798L603.181 98.3206C603.661 98.5614 603.901 98.5614 604.141 98.8021C603.661 99.2837 603.181 99.7653 602.7 100.488L601.019 99.7653C600.299 100.488 597.657 101.692 597.177 102.173C595.736 104.822 591.894 106.989 590.213 107.952C590.933 108.193 591.654 108.433 591.894 108.674C593.815 106.989 595.976 105.785 597.657 104.34C598.618 105.785 598.138 106.507 597.177 106.748L595.496 107.711C593.815 108.674 592.374 110.36 590.213 109.878C590.213 109.878 589.973 110.119 589.973 110.36C589.973 110.6 589.973 111.082 590.213 111.564C590.693 111.804 591.173 112.286 591.654 112.045C592.854 111.564 593.815 110.841 594.535 110.36C595.736 109.397 596.697 107.711 598.378 107.711C598.618 107.711 598.618 107.47 598.618 107.47C598.858 105.785 600.299 105.785 601.259 105.062C600.539 104.34 601.019 103.859 601.98 103.377L601.74 102.414C602.94 101.692 603.901 100.969 604.381 100.488C604.381 100.488 604.141 100.247 604.141 100.006C604.141 100.006 603.901 100.006 603.901 100.247V100.006C605.102 99.0429 606.543 98.3206 607.983 97.3575ZM589.732 106.748C594.535 104.34 595.976 103.859 596.216 102.655C593.815 104.099 591.654 105.062 589.492 106.507C589.492 106.507 589.492 106.748 589.732 106.748ZM583.489 111.804C585.17 109.637 587.331 108.915 587.571 109.637C586.37 110.36 585.17 111.082 583.489 111.804Z" fill="#263C43"/>
<path d="M609.95 119.991C613.552 121.436 617.634 121.436 621.477 119.509C625.319 117.824 629.161 114.694 632.043 112.527C632.523 112.286 632.763 111.564 633.244 111.082C634.925 111.082 634.925 108.674 636.606 107.711C636.846 108.193 636.846 108.674 637.326 108.915C638.046 110.119 637.806 110.6 639.247 112.045C640.208 114.212 641.889 115.175 643.33 117.102C644.05 117.342 644.53 118.306 645.251 118.546C645.731 119.028 647.172 119.028 647.652 119.269C648.613 119.509 650.774 119.028 651.735 119.028C652.455 119.028 653.656 118.546 653.896 118.546C654.616 118.546 655.817 118.065 656.297 117.824C657.498 117.102 658.219 117.342 659.659 116.62C662.061 114.935 664.222 114.453 666.143 112.286C667.104 111.082 668.785 110.119 669.986 109.156V108.674C668.785 109.397 667.104 110.119 665.903 110.841V109.878C666.624 109.878 667.104 109.637 667.584 109.397L667.824 109.156C667.344 109.156 666.864 109.156 666.143 108.915C666.864 108.674 667.344 108.433 667.824 107.952C668.305 107.23 668.785 106.748 669.265 106.507C671.186 105.544 673.107 104.099 675.029 103.136C675.749 102.655 675.989 101.932 675.989 101.451C675.029 102.414 673.348 102.895 671.907 103.859C670.466 105.062 669.265 104.822 667.584 105.544C667.584 105.785 667.824 106.026 667.824 106.266C667.104 105.785 666.383 105.785 665.423 106.507C664.943 106.989 664.222 106.989 663.502 107.23V106.748C664.462 106.507 665.183 105.785 665.903 105.544C668.305 103.618 670.466 102.173 673.348 100.969C675.029 99.7653 676.229 98.5614 678.151 97.5982C678.391 97.5982 678.871 97.839 678.871 98.0798C679.111 99.0429 678.631 99.7653 677.67 100.247C677.19 100.728 676.469 101.21 676.229 101.21C676.469 101.451 676.469 101.692 676.469 101.692C677.19 101.451 677.91 101.451 678.151 101.21C679.351 100.728 680.312 99.5245 681.032 98.8021C681.753 98.3206 683.434 97.5982 684.634 96.6351C687.756 94.4681 691.599 92.5418 694 88.9301C692.799 88.4485 692.799 89.4116 692.799 89.8932C691.358 90.8563 691.358 90.8563 690.878 89.6524L693.039 86.763L692.319 86.2815C689.918 87.7262 687.996 88.9301 686.315 90.3748C680.792 93.9865 681.272 93.5049 675.509 97.1167C672.147 99.5245 668.545 101.692 665.423 103.618C662.061 106.026 658.219 108.915 654.376 110.6C653.416 111.082 652.455 111.082 651.735 111.323C651.014 111.564 650.534 111.564 650.054 111.323C648.853 110.6 648.133 109.637 647.892 108.674C646.451 105.303 646.452 101.692 647.172 98.3206C647.412 97.839 647.412 97.3575 647.652 97.1167C648.373 95.1904 648.133 92.5418 648.133 92.5418C647.652 90.8563 646.692 89.6524 645.251 89.1709C642.369 88.9301 640.688 90.8563 638.767 91.0971C639.968 88.6893 641.889 86.5222 641.168 83.1513C640.208 77.6133 634.444 76.6502 629.401 75.687C624.839 76.1686 620.756 79.058 617.874 82.1882C614.993 85.7999 611.871 88.6893 609.229 92.7826C608.749 93.2642 608.269 94.4681 607.308 95.672L605.627 98.5614C605.147 100.247 604.426 101.451 604.186 102.895C604.186 103.136 604.186 103.136 603.946 103.377C603.466 104.822 602.985 106.026 602.265 107.711C601.304 111.323 602.025 114.453 604.186 117.342C605.627 118.065 607.548 119.269 608.028 119.75C608.749 119.991 609.469 119.991 609.95 119.991ZM609.469 113.008C610.67 108.193 612.831 104.099 614.993 100.247C617.634 95.672 626.039 84.3552 633.244 83.1513C633.003 83.3921 631.082 93.9865 636.365 94.4681H636.606C636.606 94.4681 635.645 95.672 635.405 95.672C631.803 99.5245 630.122 102.414 626.52 106.266C624.118 108.915 621.957 110.6 618.835 111.804C616.434 112.768 612.111 113.008 609.469 113.008ZM680.792 98.3206C680.312 97.839 679.351 97.3575 678.871 97.1167C679.111 96.6351 682.233 94.4681 683.914 93.5049C685.115 92.7826 686.315 92.0602 686.796 91.5787C687.036 91.5787 687.036 91.8195 687.036 92.0602C686.796 92.301 686.556 92.7826 686.075 93.0234V94.4681C685.595 94.7088 684.634 94.7088 684.154 94.9496C683.434 95.1904 682.473 95.4312 682.233 95.9128C681.753 96.1535 681.272 96.3943 681.272 97.3575C681.272 97.5982 681.032 98.3206 680.792 98.3206Z" fill="#263C43"/>
</svg>
