<svg width="138" height="147" viewBox="0 0 138 147" fill="none" xmlns="http://www.w3.org/2000/svg">
<path d="M107.812 146H115.692L110.179 140.839L110.167 140.828L110.155 140.817C105.237 135.905 102.5 129.876 102.5 122.883V121.734V120.841L103.388 120.741C111.878 119.781 119.771 115.866 125.952 109.551C133.081 102.268 137 92.7913 137 82.6875C137 74.578 134.351 66.8401 129.462 60.3186L128.968 59.6608L129.518 59.0497C134.301 53.7373 137 46.2144 137 39.0469C137 22.9901 123.919 10.1875 107.812 10.1875C102.211 10.1875 96.7534 11.5683 92.0613 14.6196L91.3622 15.0742L90.7893 14.4681C82.8117 6.02645 71.9332 1 60.375 1C37.164 1 18.25 20.4301 18.25 43.6406C18.25 45.043 18.3384 46.567 18.5243 48.1151L18.6038 48.777L18.0235 49.105C7.58211 55.0058 1 66.0098 1 78.0938C1 96.5376 16.0277 111.547 34.5 111.547C34.8955 111.547 35.2532 111.559 35.5929 111.57C36.208 111.59 36.7636 111.608 37.3762 111.551L38.0778 111.486L38.3754 112.124C40.4278 116.528 43.5464 120.254 47.3962 123.241C52.4381 127.153 58.4005 128.773 64.6875 128.773C68.0936 128.773 71.2307 128.741 74.2287 127.682L74.9996 127.41L75.4196 128.111C82.1827 139.405 94.4813 146 107.812 146Z" fill="white" stroke="#B78F46" stroke-width="2"/>
</svg>
