<svg width="87" height="95" viewBox="0 0 87 95" fill="none" xmlns="http://www.w3.org/2000/svg">
<path d="M35.4702 90.2083L35.4628 90.2227L35.455 90.2368L33.7741 93.2666L37.2501 92.1401C44.6647 89.7374 50.3144 83.8567 52.0528 76.373L52.2374 75.5783L53.053 75.5996C54.8614 75.647 56.5777 75.1149 58.513 74.4877C62.0018 73.3571 64.9984 71.3944 67.0793 68.3443C68.6817 65.9956 69.7424 63.3757 70.0939 60.5779L70.1815 59.8805L70.8674 59.7267C71.2019 59.6517 71.4751 59.5529 71.8005 59.4351C71.9932 59.3653 72.2043 59.2889 72.4573 59.207C82.6957 55.8891 88.3502 44.8683 85.0654 34.6459C82.9143 27.9513 77.3094 23.0345 70.4715 21.6387L69.8168 21.505L69.6897 20.8491C69.5165 19.9546 69.2933 19.0917 69.0434 18.314C64.8905 5.38975 50.8848 -2.01134 37.9744 2.17239C31.5498 4.25435 26.3924 9.01131 23.4584 15.1581L23.0995 15.9098L22.2953 15.6927C19.1736 14.85 15.916 15.0604 12.8105 16.0667C3.90545 18.9525 -1.04253 28.3711 1.80672 37.2381C3.08135 41.2048 5.91451 44.882 9.49218 46.9568L10.204 47.3696L9.93595 48.1476C8.38321 52.6541 8.29443 57.4282 9.74117 61.9305C11.545 67.5442 15.4127 72.1037 20.6764 74.8688C25.241 77.2668 30.3223 78.0196 35.2047 77.0254L36.0823 76.8467L36.3563 77.6994L36.5651 78.3492C37.8723 82.4173 37.4039 86.4412 35.4702 90.2083Z" fill="white" stroke="#B78F46" stroke-width="2"/>
</svg>
